<svg xmlns="http://www.w3.org/2000/svg" xmlns:xlink="http://www.w3.org/1999/xlink" width="1600" height="552" viewBox="0 0 1600 552"><defs><clipPath id="b"><rect width="1600" height="552"/></clipPath></defs><g id="a" clip-path="url(#b)"><rect width="220" height="64" rx="4" transform="translate(688 28)" fill="#fff"/><path d="M4,1A3,3,0,0,0,1,4V60a3,3,0,0,0,3,3H216a3,3,0,0,0,3-3V4a3,3,0,0,0-3-3H4M4,0H216a4,4,0,0,1,4,4V60a4,4,0,0,1-4,4H4a4,4,0,0,1-4-4V4A4,4,0,0,1,4,0Z" transform="translate(688 28)" fill="#1c1c1c"/><rect width="220" height="64" rx="4" transform="translate(556 116)"/><rect width="220" height="64" rx="4" transform="translate(288 204)" fill="#959595"/><rect width="220" height="64" rx="4" transform="translate(556 204)" fill="#959595"/><rect width="220" height="64" rx="4" transform="translate(556 292)" fill="#959595"/><rect width="220" height="64" rx="4" transform="translate(288 116)"/><rect width="220" height="64" rx="4" transform="translate(20 116)"/><rect width="220" height="64" rx="4" transform="translate(20 204)" fill="#959595"/><rect width="220" height="64" rx="4" transform="translate(20 292)" fill="#959595"/><rect width="220" height="64" rx="4" transform="translate(824 116)"/><rect width="220" height="64" rx="4" transform="translate(824 204)" fill="#959595"/><rect width="220" height="64" rx="4" transform="translate(824 292)" fill="#959595"/><rect width="220" height="64" rx="4" transform="translate(1092 116)"/><rect width="220" height="64" rx="4" transform="translate(1092 204)" fill="#959595"/><rect width="220" height="64" rx="4" transform="translate(1092 292)" fill="#959595"/><rect width="220" height="64" rx="4" transform="translate(556 380)" fill="#c9c9c9"/><rect width="220" height="64" rx="4" transform="translate(556 468)" fill="#ddd"/><path d="M-15.7-11.88v4.86H-21.24v-4.86h-2.268V0h2.268V-5.148H-15.7V0h2.268V-11.88ZM-6.534-8.6A4.205,4.205,0,0,0-10.98-4.23,4.177,4.177,0,0,0-6.534.108,4.167,4.167,0,0,0-2.088-4.23,4.2,4.2,0,0,0-6.534-8.6Zm0,6.912A2.262,2.262,0,0,1-8.748-4.23,2.285,2.285,0,0,1-6.534-6.8,2.285,2.285,0,0,1-4.32-4.23,2.262,2.262,0,0,1-6.534-1.692ZM10.638-8.586a2.79,2.79,0,0,0-2.79,1.944,2.94,2.94,0,0,0-2.97-1.944A2.78,2.78,0,0,0,2.124-6.714H2.106a8.677,8.677,0,0,0-.27-1.854L.144-8.5V0h2.2V-4.41A2.064,2.064,0,0,1,4.248-6.7c1.08,0,1.638.7,1.638,1.8V0h2.2V-4.41A2.078,2.078,0,0,1,10.008-6.7c1.08,0,1.638.7,1.638,1.8V0h2.2V-5.184A3.088,3.088,0,0,0,10.638-8.586ZM20.772-1.6a2.383,2.383,0,0,1-2.556-2.124h5.9a3.808,3.808,0,0,0,.09-.882,3.717,3.717,0,0,0-3.906-4A4.119,4.119,0,0,0,16-4.23,4.165,4.165,0,0,0,20.538.108a4.429,4.429,0,0,0,3.6-1.512L23.022-2.61A2.766,2.766,0,0,1,20.772-1.6ZM20.3-6.894A1.8,1.8,0,0,1,22.14-4.968H18.216A2.089,2.089,0,0,1,20.3-6.894Z" transform="translate(798 68)" fill="#1c1c1c"/><path d="M-16.659-1.872V-11.88h-2.268V0h7.812V-1.872Zm9.954-9.36a1.4,1.4,0,0,0-1.44-1.386,1.388,1.388,0,0,0-1.44,1.386,1.377,1.377,0,0,0,1.44,1.386A1.388,1.388,0,0,0-6.7-11.232ZM-9.261,0h2.2V-8.568l-2.2.072ZM.369-5.508l1.944-.126a2.151,2.151,0,0,0,.072-.576C2.385-7.6.981-8.6-1.053-8.6-3.195-8.6-4.6-7.56-4.6-5.976-4.6-2.862.3-3.78.3-2.3c0,.486-.486.81-1.476.81A4.782,4.782,0,0,1-3.9-2.52l-1.1,1.35A5.6,5.6,0,0,0-1.125.108c2.25,0,3.654-.972,3.654-2.5-.036-3.258-5.04-1.89-5.04-3.672,0-.576.486-.99,1.386-.99.936,0,1.53.468,1.53,1.206A1.657,1.657,0,0,1,.369-5.508ZM10.4-2.214a2.267,2.267,0,0,1-1.44.468C7.947-1.746,7.5-2.3,7.5-3.51V-6.8h3.078V-8.5H7.5v-2.52l-2.142.09V-8.5H3.987V-6.8H5.3v3.366C5.3-1.08,6.381.108,8.6.108a4.625,4.625,0,0,0,2.43-.594Zm7.056-3.294L19.4-5.634a2.15,2.15,0,0,0,.072-.576c0-1.386-1.4-2.394-3.438-2.394-2.142,0-3.546,1.044-3.546,2.628,0,3.114,4.9,2.2,4.9,3.672,0,.486-.486.81-1.476.81A4.782,4.782,0,0,1,13.185-2.52l-1.1,1.35A5.6,5.6,0,0,0,15.957.108c2.25,0,3.654-.972,3.654-2.5-.036-3.258-5.04-1.89-5.04-3.672,0-.576.486-.99,1.386-.99.936,0,1.53.468,1.53,1.206A1.657,1.657,0,0,1,17.451-5.508Z" transform="translate(666 155)" fill="#fff"/><path d="M-16.659-1.872V-11.88h-2.268V0h7.812V-1.872Zm9.954-9.36a1.4,1.4,0,0,0-1.44-1.386,1.388,1.388,0,0,0-1.44,1.386,1.377,1.377,0,0,0,1.44,1.386A1.388,1.388,0,0,0-6.7-11.232ZM-9.261,0h2.2V-8.568l-2.2.072ZM.369-5.508l1.944-.126a2.151,2.151,0,0,0,.072-.576C2.385-7.6.981-8.6-1.053-8.6-3.195-8.6-4.6-7.56-4.6-5.976-4.6-2.862.3-3.78.3-2.3c0,.486-.486.81-1.476.81A4.782,4.782,0,0,1-3.9-2.52l-1.1,1.35A5.6,5.6,0,0,0-1.125.108c2.25,0,3.654-.972,3.654-2.5-.036-3.258-5.04-1.89-5.04-3.672,0-.576.486-.99,1.386-.99.936,0,1.53.468,1.53,1.206A1.657,1.657,0,0,1,.369-5.508ZM10.4-2.214a2.267,2.267,0,0,1-1.44.468C7.947-1.746,7.5-2.3,7.5-3.51V-6.8h3.078V-8.5H7.5v-2.52l-2.142.09V-8.5H3.987V-6.8H5.3v3.366C5.3-1.08,6.381.108,8.6.108a4.625,4.625,0,0,0,2.43-.594Zm7.056-3.294L19.4-5.634a2.15,2.15,0,0,0,.072-.576c0-1.386-1.4-2.394-3.438-2.394-2.142,0-3.546,1.044-3.546,2.628,0,3.114,4.9,2.2,4.9,3.672,0,.486-.486.81-1.476.81A4.782,4.782,0,0,1,13.185-2.52l-1.1,1.35A5.6,5.6,0,0,0,15.957.108c2.25,0,3.654-.972,3.654-2.5-.036-3.258-5.04-1.89-5.04-3.672,0-.576.486-.99,1.386-.99.936,0,1.53.468,1.53,1.206A1.657,1.657,0,0,1,17.451-5.508Z" transform="translate(398 243)"/><path d="M-25.938-10.008V-11.88H-33.66V0h7.722V-1.872h-5.454V-5.184h4.77v-1.8h-4.77v-3.024Zm8.424-2.7v5.346A3.062,3.062,0,0,0-20.16-8.6c-2.25,0-3.96,1.638-3.96,4.374,0,2.538,1.53,4.338,3.852,4.338A3.02,3.02,0,0,0-17.334-1.71h.054A9.779,9.779,0,0,0-17.064.072L-15.318,0V-12.708Zm-2.2,10.98a2.219,2.219,0,0,1-2.2-2.5c0-1.548.846-2.538,2.124-2.538A2.228,2.228,0,0,1-17.514-4.5V-4A2.226,2.226,0,0,1-19.71-1.728Zm9.666-9.5a1.4,1.4,0,0,0-1.44-1.386,1.388,1.388,0,0,0-1.44,1.386,1.377,1.377,0,0,0,1.44,1.386A1.388,1.388,0,0,0-10.044-11.232ZM-12.6,0h2.2V-8.568l-2.2.072ZM-1.98-2.214a2.267,2.267,0,0,1-1.44.468c-1.008,0-1.458-.558-1.458-1.764V-6.8H-1.8V-8.5H-4.878v-2.52l-2.142.09V-8.5H-8.388V-6.8h1.314v3.366C-7.074-1.08-5.994.108-3.78.108A4.625,4.625,0,0,0-1.35-.486Zm9.2.342V-11.88H4.95V0h7.812V-1.872Zm9.954-9.36a1.4,1.4,0,0,0-1.44-1.386,1.388,1.388,0,0,0-1.44,1.386,1.377,1.377,0,0,0,1.44,1.386A1.388,1.388,0,0,0,17.172-11.232ZM14.616,0h2.2V-8.568l-2.2.072Zm9.63-5.508,1.944-.126a2.15,2.15,0,0,0,.072-.576c0-1.386-1.4-2.394-3.438-2.394-2.142,0-3.546,1.044-3.546,2.628,0,3.114,4.9,2.2,4.9,3.672,0,.486-.486.81-1.476.81A4.782,4.782,0,0,1,19.98-2.52l-1.1,1.35A5.6,5.6,0,0,0,22.752.108c2.25,0,3.654-.972,3.654-2.5-.036-3.258-5.04-1.89-5.04-3.672,0-.576.486-.99,1.386-.99.936,0,1.53.468,1.53,1.206A1.657,1.657,0,0,1,24.246-5.508ZM34.272-2.214a2.267,2.267,0,0,1-1.44.468c-1.008,0-1.458-.558-1.458-1.764V-6.8h3.078V-8.5H31.374v-2.52l-2.142.09V-8.5H27.864V-6.8h1.314v3.366c0,2.358,1.08,3.546,3.294,3.546A4.625,4.625,0,0,0,34.9-.486Z" transform="translate(666 243)"/><path d="M-50.517-10.008V-11.88h-7.542V0h2.268V-4.95h4.536V-6.8h-4.536v-3.2Zm5.724,1.4A4.205,4.205,0,0,0-49.239-4.23,4.177,4.177,0,0,0-44.793.108,4.167,4.167,0,0,0-40.347-4.23,4.2,4.2,0,0,0-44.793-8.6Zm0,6.912A2.262,2.262,0,0,1-47.007-4.23,2.285,2.285,0,0,1-44.793-6.8,2.285,2.285,0,0,1-42.579-4.23,2.262,2.262,0,0,1-44.793-1.692ZM-34.209-8.6a4.181,4.181,0,0,0-4.374,4.392,4.15,4.15,0,0,0,4.5,4.32A4.6,4.6,0,0,0-30.429-1.35l-1.116-1.368a3.033,3.033,0,0,1-2.412,1.026,2.3,2.3,0,0,1-2.394-2.592c0-1.512.846-2.52,2.124-2.52a1.457,1.457,0,0,1,1.6,1.494,1.7,1.7,0,0,1-.036.4L-30.7-5.04a2.908,2.908,0,0,0,.054-.594C-30.645-7.29-31.995-8.6-34.209-8.6Zm11.52.108v4.41a2.122,2.122,0,0,1-1.89,2.322c-1.08,0-1.638-.72-1.638-1.818V-8.5h-2.2v5.22a3.073,3.073,0,0,0,3.2,3.384,2.778,2.778,0,0,0,2.7-1.764h.036A10.672,10.672,0,0,0-22.221.072L-20.493,0V-8.5Zm9.612,2.988,1.944-.126a2.15,2.15,0,0,0,.072-.576c0-1.386-1.4-2.394-3.438-2.394-2.142,0-3.546,1.044-3.546,2.628,0,3.114,4.9,2.2,4.9,3.672,0,.486-.486.81-1.476.81A4.782,4.782,0,0,1-17.343-2.52l-1.1,1.35A5.6,5.6,0,0,0-14.571.108c2.25,0,3.654-.972,3.654-2.5-.036-3.258-5.04-1.89-5.04-3.672,0-.576.486-.99,1.386-.99.936,0,1.53.468,1.53,1.206A1.657,1.657,0,0,1-13.077-5.508ZM1.989-8.442l2.052-.5c-.234-1.152-1.134-3.06-4.32-3.06-2.484,0-4.14,1.494-4.14,3.474,0,4.14,6.282,2.79,6.282,5.418,0,.846-.738,1.368-2.106,1.368A5.163,5.163,0,0,1-3.609-3.114l-1.35,1.656A7.234,7.234,0,0,0-.3.126c2.862,0,4.428-1.4,4.428-3.276,0-4.446-6.282-3.2-6.282-5.49,0-.9.738-1.458,1.926-1.458A2.031,2.031,0,0,1,1.989-8.442ZM10.773-1.6A2.383,2.383,0,0,1,8.217-3.726h5.9a3.808,3.808,0,0,0,.09-.882,3.717,3.717,0,0,0-3.906-4A4.119,4.119,0,0,0,6-4.23,4.165,4.165,0,0,0,10.539.108a4.429,4.429,0,0,0,3.6-1.512L13.023-2.61A2.766,2.766,0,0,1,10.773-1.6Zm-.468-5.292a1.8,1.8,0,0,1,1.836,1.926H8.217A2.089,2.089,0,0,1,10.305-6.894ZM21.177-5.508l1.944-.126a2.15,2.15,0,0,0,.072-.576c0-1.386-1.4-2.394-3.438-2.394-2.142,0-3.546,1.044-3.546,2.628,0,3.114,4.9,2.2,4.9,3.672,0,.486-.486.81-1.476.81A4.782,4.782,0,0,1,16.911-2.52l-1.1,1.35A5.6,5.6,0,0,0,19.683.108c2.25,0,3.654-.972,3.654-2.5C23.3-5.652,18.3-4.284,18.3-6.066c0-.576.486-.99,1.386-.99.936,0,1.53.468,1.53,1.206A1.657,1.657,0,0,1,21.177-5.508Zm9.126,0,1.944-.126a2.151,2.151,0,0,0,.072-.576c0-1.386-1.4-2.394-3.438-2.394-2.142,0-3.546,1.044-3.546,2.628,0,3.114,4.9,2.2,4.9,3.672,0,.486-.486.81-1.476.81A4.782,4.782,0,0,1,26.037-2.52l-1.1,1.35A5.6,5.6,0,0,0,28.809.108c2.25,0,3.654-.972,3.654-2.5-.036-3.258-5.04-1.89-5.04-3.672,0-.576.486-.99,1.386-.99.936,0,1.53.468,1.53,1.206A1.657,1.657,0,0,1,30.3-5.508Zm7-5.724a1.4,1.4,0,0,0-1.44-1.386,1.388,1.388,0,0,0-1.44,1.386,1.377,1.377,0,0,0,1.44,1.386A1.388,1.388,0,0,0,37.305-11.232ZM34.749,0h2.2V-8.568l-2.2.072Zm8.892-8.6A4.205,4.205,0,0,0,39.195-4.23,4.177,4.177,0,0,0,43.641.108,4.167,4.167,0,0,0,48.087-4.23,4.2,4.2,0,0,0,43.641-8.6Zm0,6.912A2.262,2.262,0,0,1,41.427-4.23,2.285,2.285,0,0,1,43.641-6.8,2.285,2.285,0,0,1,45.855-4.23,2.262,2.262,0,0,1,43.641-1.692ZM55.179-8.6a2.9,2.9,0,0,0-2.844,1.89h-.054a9,9,0,0,0-.27-1.854L50.319-8.5V0h2.2V-4.41a2.137,2.137,0,0,1,2.034-2.322A1.6,1.6,0,0,1,56.2-4.914V0h2.2V-5.22A3.077,3.077,0,0,0,55.179-8.6Z" transform="translate(666 331)"/><path d="M-60.9-12.006c-3.222,0-5.526,2.376-5.526,6.066,0,3.78,2.358,6.066,5.832,6.066a5.456,5.456,0,0,0,4.536-2.3l-1.35-1.386a4,4,0,0,1-3.132,1.71c-1.854,0-3.582-1.17-3.582-4.086,0-2.574,1.44-4.086,3.258-4.086A2.529,2.529,0,0,1-58.275-7.38l2.124-.324A4.358,4.358,0,0,0-60.9-12.006Zm11.268,3.4A2.368,2.368,0,0,0-51.921-6.66h-.054a9.629,9.629,0,0,0-.27-1.908l-1.692.072V0h2.2V-4.212c0-1.53.882-2.3,1.836-2.3a1.5,1.5,0,0,1,.918.27l.558-2.142A3.2,3.2,0,0,0-49.635-8.6Zm6.948,7a2.383,2.383,0,0,1-2.556-2.124h5.9a3.808,3.808,0,0,0,.09-.882,3.717,3.717,0,0,0-3.906-4,4.119,4.119,0,0,0-4.3,4.374A4.165,4.165,0,0,0-42.921.108a4.429,4.429,0,0,0,3.6-1.512L-40.437-2.61A2.766,2.766,0,0,1-42.687-1.6Zm-.468-5.292a1.8,1.8,0,0,1,1.836,1.926h-3.924A2.089,2.089,0,0,1-43.155-6.894Zm14.238,5.148a1.585,1.585,0,0,1-.306.036c-.36,0-.5-.144-.5-.576V-5.274c0-2.07-1.35-3.33-3.78-3.33-2.286,0-3.672,1.08-3.672,2.682a2.906,2.906,0,0,0,.108.792l1.944-.324A.879.879,0,0,1-35.2-5.8c0-.7.576-1.116,1.62-1.116a1.5,1.5,0,0,1,1.71,1.584v.414h-.144c-3.348.054-5.418.648-5.418,2.682,0,1.4,1.026,2.34,2.88,2.34a2.868,2.868,0,0,0,2.79-1.368c.144.918.756,1.35,1.854,1.35a4.8,4.8,0,0,0,1.08-.126Zm-5.058.18c-.846,0-1.314-.324-1.314-.9,0-.846.972-1.206,3.276-1.242h.144v.72C-31.869-2.268-32.643-1.566-33.975-1.566Zm12.69-.648a2.267,2.267,0,0,1-1.44.468c-1.008,0-1.458-.558-1.458-1.764V-6.8H-21.1V-8.5h-3.078v-2.52l-2.142.09V-8.5h-1.368V-6.8h1.314v3.366c0,2.358,1.08,3.546,3.294,3.546a4.625,4.625,0,0,0,2.43-.594Zm6.534.612a2.383,2.383,0,0,1-2.556-2.124h5.9a3.808,3.808,0,0,0,.09-.882,3.717,3.717,0,0,0-3.906-4,4.119,4.119,0,0,0-4.3,4.374A4.165,4.165,0,0,0-14.985.108a4.429,4.429,0,0,0,3.6-1.512L-12.5-2.61A2.766,2.766,0,0,1-14.751-1.6Zm-.468-5.292a1.8,1.8,0,0,1,1.836,1.926h-3.924A2.089,2.089,0,0,1-15.219-6.894ZM5.409-11.88H3.195l.018,6.462c0,.99.054,1.89.09,2.2l-.108.054A24.41,24.41,0,0,0,1.9-5.4l-4.23-6.48H-4.473V0h2.232l-.036-6.282a17.285,17.285,0,0,0-.09-2.142l.09-.054c.234.4.864,1.476,1.35,2.214L3.177,0H5.409ZM12.627-1.6a2.383,2.383,0,0,1-2.556-2.124h5.9a3.808,3.808,0,0,0,.09-.882,3.717,3.717,0,0,0-3.906-4,4.119,4.119,0,0,0-4.3,4.374A4.165,4.165,0,0,0,12.393.108a4.429,4.429,0,0,0,3.6-1.512L14.877-2.61A2.766,2.766,0,0,1,12.627-1.6Zm-.468-5.292a1.8,1.8,0,0,1,1.836,1.926H10.071A2.089,2.089,0,0,1,12.159-6.894ZM28.4-8.5l-1.35,5.274c-.126.468-.2.9-.234,1.116h-.054c-.036-.216-.144-.684-.252-1.116L25.029-8.5H23.013l-1.494,5.31c-.108.432-.2.792-.252,1.08h-.054c-.036-.288-.126-.594-.234-1.08L19.611-8.5H17.289L19.9,0h2.5l1.44-4.806c.054-.252.126-.666.144-.846h.054a6.239,6.239,0,0,0,.162.846L25.587,0h2.538l2.5-8.5Zm11,6.624V-11.88H37.125V0h7.812V-1.872Zm9.954-9.36a1.4,1.4,0,0,0-1.44-1.386,1.388,1.388,0,0,0-1.44,1.386,1.377,1.377,0,0,0,1.44,1.386A1.388,1.388,0,0,0,49.347-11.232ZM46.791,0h2.2V-8.568l-2.2.072Zm9.63-5.508,1.944-.126a2.151,2.151,0,0,0,.072-.576C58.437-7.6,57.033-8.6,55-8.6c-2.142,0-3.546,1.044-3.546,2.628,0,3.114,4.9,2.2,4.9,3.672,0,.486-.486.81-1.476.81A4.782,4.782,0,0,1,52.155-2.52l-1.1,1.35A5.6,5.6,0,0,0,54.927.108c2.25,0,3.654-.972,3.654-2.5-.036-3.258-5.04-1.89-5.04-3.672,0-.576.486-.99,1.386-.99.936,0,1.53.468,1.53,1.206A1.657,1.657,0,0,1,56.421-5.508ZM66.447-2.214a2.267,2.267,0,0,1-1.44.468C64-1.746,63.549-2.3,63.549-3.51V-6.8h3.078V-8.5H63.549v-2.52l-2.142.09V-8.5H60.039V-6.8h1.314v3.366c0,2.358,1.08,3.546,3.294,3.546a4.625,4.625,0,0,0,2.43-.594Z" transform="translate(398 155)" fill="#fff"/><path d="M-44.613-11.88h-2.214l.018,6.462c0,.99.054,1.89.09,2.2l-.108.054a24.409,24.409,0,0,0-1.3-2.232l-4.23-6.48h-2.142V0h2.232L-52.3-6.282a17.284,17.284,0,0,0-.09-2.142l.09-.054c.234.4.864,1.476,1.35,2.214L-46.845,0h2.232ZM-37.737-8.6A4.205,4.205,0,0,0-42.183-4.23,4.177,4.177,0,0,0-37.737.108,4.167,4.167,0,0,0-33.291-4.23,4.2,4.2,0,0,0-37.737-8.6Zm0,6.912A2.262,2.262,0,0,1-39.951-4.23,2.285,2.285,0,0,1-37.737-6.8,2.285,2.285,0,0,1-35.523-4.23,2.262,2.262,0,0,1-37.737-1.692Zm12.2-.522a2.267,2.267,0,0,1-1.44.468c-1.008,0-1.458-.558-1.458-1.764V-6.8h3.078V-8.5h-3.078v-2.52l-2.142.09V-8.5h-1.368V-6.8h1.314v3.366c0,2.358,1.08,3.546,3.294,3.546A4.625,4.625,0,0,0-24.9-.486Zm4.914-9.018a1.4,1.4,0,0,0-1.44-1.386,1.388,1.388,0,0,0-1.44,1.386,1.377,1.377,0,0,0,1.44,1.386A1.388,1.388,0,0,0-20.619-11.232ZM-23.175,0h2.2V-8.568l-2.2.072Zm7.83-9.288A1.5,1.5,0,0,1-13.8-10.98a1.935,1.935,0,0,1,1.062.36l.666-1.746a4.231,4.231,0,0,0-1.98-.45,3.326,3.326,0,0,0-3.492,3.564V-8.5H-18.8V-6.8h1.26V0h2.2V-6.8h2.736V-8.5h-2.736Zm7.182-1.944A1.4,1.4,0,0,0-9.6-12.618a1.388,1.388,0,0,0-1.44,1.386A1.377,1.377,0,0,0-9.6-9.846,1.388,1.388,0,0,0-8.163-11.232ZM-10.719,0h2.2V-8.568l-2.2.072ZM-1.9-8.6A4.181,4.181,0,0,0-6.273-4.212a4.15,4.15,0,0,0,4.5,4.32A4.6,4.6,0,0,0,1.881-1.35L.765-2.718A3.033,3.033,0,0,1-1.647-1.692,2.3,2.3,0,0,1-4.041-4.284c0-1.512.846-2.52,2.124-2.52A1.457,1.457,0,0,1-.315-5.31a1.7,1.7,0,0,1-.036.4L1.611-5.04a2.908,2.908,0,0,0,.054-.594C1.665-7.29.315-8.6-1.9-8.6Zm13.95,6.858a1.585,1.585,0,0,1-.306.036c-.36,0-.5-.144-.5-.576V-5.274c0-2.07-1.35-3.33-3.78-3.33-2.286,0-3.672,1.08-3.672,2.682A2.906,2.906,0,0,0,3.9-5.13l1.944-.324A.879.879,0,0,1,5.769-5.8c0-.7.576-1.116,1.62-1.116A1.5,1.5,0,0,1,9.1-5.328v.414H8.955c-3.348.054-5.418.648-5.418,2.682,0,1.4,1.026,2.34,2.88,2.34A2.868,2.868,0,0,0,9.207-1.26c.144.918.756,1.35,1.854,1.35a4.8,4.8,0,0,0,1.08-.126Zm-5.058.18c-.846,0-1.314-.324-1.314-.9,0-.846.972-1.206,3.276-1.242H9.1v.72C9.1-2.268,8.325-1.566,6.993-1.566Zm12.69-.648a2.267,2.267,0,0,1-1.44.468c-1.008,0-1.458-.558-1.458-1.764V-6.8h3.078V-8.5H16.785v-2.52l-2.142.09V-8.5H13.275V-6.8h1.314v3.366c0,2.358,1.08,3.546,3.294,3.546a4.625,4.625,0,0,0,2.43-.594ZM24.6-11.232a1.4,1.4,0,0,0-1.44-1.386,1.388,1.388,0,0,0-1.44,1.386,1.377,1.377,0,0,0,1.44,1.386A1.388,1.388,0,0,0,24.6-11.232ZM22.041,0h2.2V-8.568l-2.2.072Zm8.892-8.6A4.205,4.205,0,0,0,26.487-4.23,4.177,4.177,0,0,0,30.933.108,4.167,4.167,0,0,0,35.379-4.23,4.2,4.2,0,0,0,30.933-8.6Zm0,6.912A2.262,2.262,0,0,1,28.719-4.23,2.285,2.285,0,0,1,30.933-6.8,2.285,2.285,0,0,1,33.147-4.23,2.262,2.262,0,0,1,30.933-1.692ZM42.471-8.6a2.9,2.9,0,0,0-2.844,1.89h-.054a9,9,0,0,0-.27-1.854L37.611-8.5V0h2.2V-4.41a2.137,2.137,0,0,1,2.034-2.322A1.6,1.6,0,0,1,43.5-4.914V0h2.2V-5.22A3.077,3.077,0,0,0,42.471-8.6Zm10.548,3.1,1.944-.126a2.151,2.151,0,0,0,.072-.576c0-1.386-1.4-2.394-3.438-2.394-2.142,0-3.546,1.044-3.546,2.628,0,3.114,4.9,2.2,4.9,3.672,0,.486-.486.81-1.476.81A4.782,4.782,0,0,1,48.753-2.52l-1.1,1.35A5.6,5.6,0,0,0,51.525.108c2.25,0,3.654-.972,3.654-2.5-.036-3.258-5.04-1.89-5.04-3.672,0-.576.486-.99,1.386-.99.936,0,1.53.468,1.53,1.206A1.657,1.657,0,0,1,53.019-5.508Z" transform="translate(130 155)" fill="#fff"/><path d="M-77.058-10.008V-11.88H-84.6V0h2.268V-4.95H-77.8V-6.8h-4.536v-3.2Zm5.724,1.4A4.205,4.205,0,0,0-75.78-4.23,4.177,4.177,0,0,0-71.334.108,4.167,4.167,0,0,0-66.888-4.23,4.2,4.2,0,0,0-71.334-8.6Zm0,6.912A2.262,2.262,0,0,1-73.548-4.23,2.285,2.285,0,0,1-71.334-6.8,2.285,2.285,0,0,1-69.12-4.23,2.262,2.262,0,0,1-71.334-1.692ZM-60.75-8.6a4.181,4.181,0,0,0-4.374,4.392,4.15,4.15,0,0,0,4.5,4.32A4.6,4.6,0,0,0-56.97-1.35l-1.116-1.368A3.033,3.033,0,0,1-60.5-1.692a2.3,2.3,0,0,1-2.394-2.592c0-1.512.846-2.52,2.124-2.52a1.457,1.457,0,0,1,1.6,1.494,1.7,1.7,0,0,1-.036.4l1.962-.126a2.908,2.908,0,0,0,.054-.594C-57.186-7.29-58.536-8.6-60.75-8.6Zm11.52.108v4.41a2.122,2.122,0,0,1-1.89,2.322c-1.08,0-1.638-.72-1.638-1.818V-8.5h-2.2v5.22A3.073,3.073,0,0,0-51.75.108a2.778,2.778,0,0,0,2.7-1.764h.036A10.672,10.672,0,0,0-48.762.072L-47.034,0V-8.5Zm9.612,2.988,1.944-.126A2.151,2.151,0,0,0-37.6-6.21c0-1.386-1.4-2.394-3.438-2.394-2.142,0-3.546,1.044-3.546,2.628,0,3.114,4.9,2.2,4.9,3.672,0,.486-.486.81-1.476.81A4.782,4.782,0,0,1-43.884-2.52l-1.1,1.35A5.6,5.6,0,0,0-41.112.108c2.25,0,3.654-.972,3.654-2.5-.036-3.258-5.04-1.89-5.04-3.672,0-.576.486-.99,1.386-.99.936,0,1.53.468,1.53,1.206A1.657,1.657,0,0,1-39.618-5.508Zm15.066-2.934,2.052-.5c-.234-1.152-1.134-3.06-4.32-3.06-2.484,0-4.14,1.494-4.14,3.474,0,4.14,6.282,2.79,6.282,5.418,0,.846-.738,1.368-2.106,1.368A5.163,5.163,0,0,1-30.15-3.114L-31.5-1.458A7.234,7.234,0,0,0-26.838.126c2.862,0,4.428-1.4,4.428-3.276,0-4.446-6.282-3.2-6.282-5.49,0-.9.738-1.458,1.926-1.458A2.031,2.031,0,0,1-24.552-8.442Zm8.784,6.84a2.383,2.383,0,0,1-2.556-2.124h5.9a3.808,3.808,0,0,0,.09-.882,3.717,3.717,0,0,0-3.906-4,4.119,4.119,0,0,0-4.3,4.374A4.165,4.165,0,0,0-16,.108,4.429,4.429,0,0,0-12.4-1.4L-13.518-2.61A2.766,2.766,0,0,1-15.768-1.6Zm-.468-5.292A1.8,1.8,0,0,1-14.4-4.968h-3.924A2.089,2.089,0,0,1-16.236-6.894ZM-5.364-5.508l1.944-.126a2.151,2.151,0,0,0,.072-.576c0-1.386-1.4-2.394-3.438-2.394-2.142,0-3.546,1.044-3.546,2.628,0,3.114,4.9,2.2,4.9,3.672,0,.486-.486.81-1.476.81A4.782,4.782,0,0,1-9.63-2.52l-1.1,1.35A5.6,5.6,0,0,0-6.858.108c2.25,0,3.654-.972,3.654-2.5-.036-3.258-5.04-1.89-5.04-3.672,0-.576.486-.99,1.386-.99.936,0,1.53.468,1.53,1.206A1.657,1.657,0,0,1-5.364-5.508Zm9.126,0,1.944-.126a2.151,2.151,0,0,0,.072-.576C5.778-7.6,4.374-8.6,2.34-8.6.2-8.6-1.206-7.56-1.206-5.976c0,3.114,4.9,2.2,4.9,3.672,0,.486-.486.81-1.476.81A4.782,4.782,0,0,1-.5-2.52L-1.6-1.17A5.6,5.6,0,0,0,2.268.108c2.25,0,3.654-.972,3.654-2.5C5.886-5.652.882-4.284.882-6.066c0-.576.486-.99,1.386-.99.936,0,1.53.468,1.53,1.206A1.657,1.657,0,0,1,3.762-5.508Zm7-5.724a1.4,1.4,0,0,0-1.44-1.386,1.388,1.388,0,0,0-1.44,1.386,1.377,1.377,0,0,0,1.44,1.386A1.388,1.388,0,0,0,10.764-11.232ZM8.208,0h2.2V-8.568l-2.2.072ZM17.1-8.6A4.205,4.205,0,0,0,12.654-4.23,4.177,4.177,0,0,0,17.1.108,4.167,4.167,0,0,0,21.546-4.23,4.2,4.2,0,0,0,17.1-8.6Zm0,6.912A2.262,2.262,0,0,1,14.886-4.23,2.285,2.285,0,0,1,17.1-6.8,2.285,2.285,0,0,1,19.314-4.23,2.262,2.262,0,0,1,17.1-1.692ZM28.638-8.6a2.9,2.9,0,0,0-2.844,1.89H25.74a9,9,0,0,0-.27-1.854L23.778-8.5V0h2.2V-4.41a2.137,2.137,0,0,1,2.034-2.322,1.6,1.6,0,0,1,1.656,1.818V0h2.2V-5.22A3.077,3.077,0,0,0,28.638-8.6ZM39.06,0h2.25V-11.88H39.06ZM49.086-8.6a2.9,2.9,0,0,0-2.844,1.89h-.054a9,9,0,0,0-.27-1.854L44.226-8.5V0h2.2V-4.41a2.137,2.137,0,0,1,2.034-2.322,1.6,1.6,0,0,1,1.656,1.818V0h2.2V-5.22A3.077,3.077,0,0,0,49.086-8.6ZM60.642-8.5,58.68-3.186a5.918,5.918,0,0,0-.27,1.08h-.054a4.992,4.992,0,0,0-.27-1.08L56.142-8.5H53.766L57.1,0h2.43l3.312-8.5Zm6.624-2.736a1.4,1.4,0,0,0-1.44-1.386,1.388,1.388,0,0,0-1.44,1.386,1.377,1.377,0,0,0,1.44,1.386A1.388,1.388,0,0,0,67.266-11.232ZM64.71,0h2.2V-8.568l-2.2.072ZM75.33-2.214a2.267,2.267,0,0,1-1.44.468c-1.008,0-1.458-.558-1.458-1.764V-6.8H75.51V-8.5H72.432v-2.52l-2.142.09V-8.5H68.922V-6.8h1.314v3.366c0,2.358,1.08,3.546,3.294,3.546a4.625,4.625,0,0,0,2.43-.594Zm6.534.612a2.383,2.383,0,0,1-2.556-2.124h5.9a3.808,3.808,0,0,0,.09-.882,3.717,3.717,0,0,0-3.906-4,4.119,4.119,0,0,0-4.3,4.374A4.165,4.165,0,0,0,81.63.108,4.429,4.429,0,0,0,85.23-1.4L84.114-2.61A2.766,2.766,0,0,1,81.864-1.6ZM81.4-6.894a1.8,1.8,0,0,1,1.836,1.926H79.308A2.089,2.089,0,0,1,81.4-6.894Z" transform="translate(130 243)"/><path d="M-82.332-11.88h-4.122V0h2.268V-3.582h2.142c2.736,0,4.59-1.422,4.59-4.158C-77.454-10.458-79.272-11.88-82.332-11.88Zm-.126,6.48h-1.728v-4.662h1.638c1.836,0,2.808.882,2.808,2.322C-79.74-6.228-80.73-5.4-82.458-5.4Zm11.394-3.2A2.368,2.368,0,0,0-73.35-6.66H-73.4a9.629,9.629,0,0,0-.27-1.908l-1.692.072V0h2.2V-4.212c0-1.53.882-2.3,1.836-2.3a1.5,1.5,0,0,1,.918.27l.558-2.142A3.2,3.2,0,0,0-71.064-8.6Zm6.606,0A4.205,4.205,0,0,0-68.9-4.23,4.177,4.177,0,0,0-64.458.108,4.167,4.167,0,0,0-60.012-4.23,4.2,4.2,0,0,0-64.458-8.6Zm0,6.912A2.262,2.262,0,0,1-66.672-4.23,2.285,2.285,0,0,1-64.458-6.8,2.285,2.285,0,0,1-62.244-4.23,2.262,2.262,0,0,1-64.458-1.692Zm9.378-7.6a1.5,1.5,0,0,1,1.548-1.692,1.935,1.935,0,0,1,1.062.36l.666-1.746a4.231,4.231,0,0,0-1.98-.45,3.326,3.326,0,0,0-3.492,3.564V-8.5h-1.26V-6.8h1.26V0h2.2V-6.8h2.736V-8.5H-55.08Zm7.182-1.944a1.4,1.4,0,0,0-1.44-1.386,1.388,1.388,0,0,0-1.44,1.386,1.377,1.377,0,0,0,1.44,1.386A1.388,1.388,0,0,0-47.9-11.232ZM-50.454,0h2.2V-8.568l-2.2.072Zm4.932,0h2.178V-12.708h-2.178Zm9.216-1.6a2.383,2.383,0,0,1-2.556-2.124h5.9a3.808,3.808,0,0,0,.09-.882,3.717,3.717,0,0,0-3.906-4,4.119,4.119,0,0,0-4.3,4.374A4.165,4.165,0,0,0-36.54.108,4.429,4.429,0,0,0-32.94-1.4L-34.056-2.61A2.766,2.766,0,0,1-36.306-1.6Zm-.468-5.292a1.8,1.8,0,0,1,1.836,1.926h-3.924A2.089,2.089,0,0,1-36.774-6.894ZM-23.958,4.392l1.818-.81a12.555,12.555,0,0,1-2.394-7.92,12.555,12.555,0,0,1,2.394-7.92l-1.818-.81a13.851,13.851,0,0,0-2.682,8.73A13.851,13.851,0,0,0-23.958,4.392Zm5.274-16.272h-2.358L-16.848,0h2.394l4.212-11.88h-2.3l-2.682,8.19a12.585,12.585,0,0,0-.378,1.314h-.054a11.851,11.851,0,0,0-.36-1.332Zm12.8.648a1.4,1.4,0,0,0-1.44-1.386,1.388,1.388,0,0,0-1.44,1.386,1.377,1.377,0,0,0,1.44,1.386A1.388,1.388,0,0,0-5.886-11.232ZM-8.442,0h2.2V-8.568l-2.2.072ZM.792-1.6A2.383,2.383,0,0,1-1.764-3.726h5.9a3.808,3.808,0,0,0,.09-.882,3.717,3.717,0,0,0-3.906-4,4.119,4.119,0,0,0-4.3,4.374A4.165,4.165,0,0,0,.558.108,4.429,4.429,0,0,0,4.158-1.4L3.042-2.61A2.766,2.766,0,0,1,.792-1.6ZM.324-6.894A1.8,1.8,0,0,1,2.16-4.968H-1.764A2.089,2.089,0,0,1,.324-6.894ZM16.56-8.5,15.21-3.222c-.126.468-.2.9-.234,1.116h-.054c-.036-.216-.144-.684-.252-1.116L13.194-8.5H11.178L9.684-3.186c-.108.432-.2.792-.252,1.08H9.378c-.036-.288-.126-.594-.234-1.08L7.776-8.5H5.454L8.064,0h2.5l1.44-4.806c.054-.252.126-.666.144-.846H12.2a6.238,6.238,0,0,0,.162.846L13.752,0H16.29l2.5-8.5Zm13.662-3.51C27-12.006,24.7-9.63,24.7-5.94c0,3.78,2.358,6.066,5.832,6.066a5.456,5.456,0,0,0,4.536-2.3l-1.35-1.386a4,4,0,0,1-3.132,1.71C28.728-1.854,27-3.024,27-5.94c0-2.574,1.44-4.086,3.258-4.086A2.529,2.529,0,0,1,32.85-7.38L34.974-7.7A4.358,4.358,0,0,0,30.222-12.006ZM42.048-8.6A2.788,2.788,0,0,0,39.4-7.074h-.054v-5.634h-2.16V0h2.2V-4.41a2.127,2.127,0,0,1,2.034-2.322,1.59,1.59,0,0,1,1.656,1.818V0h2.2V-5.22A3.068,3.068,0,0,0,42.048-8.6Zm10.17,7a2.383,2.383,0,0,1-2.556-2.124h5.9a3.808,3.808,0,0,0,.09-.882,3.717,3.717,0,0,0-3.906-4,4.119,4.119,0,0,0-4.3,4.374A4.165,4.165,0,0,0,51.984.108a4.429,4.429,0,0,0,3.6-1.512L54.468-2.61A2.766,2.766,0,0,1,52.218-1.6ZM51.75-6.894a1.8,1.8,0,0,1,1.836,1.926H49.662A2.089,2.089,0,0,1,51.75-6.894ZM62.226-1.6A2.383,2.383,0,0,1,59.67-3.726h5.9a3.808,3.808,0,0,0,.09-.882,3.717,3.717,0,0,0-3.906-4,4.119,4.119,0,0,0-4.3,4.374A4.165,4.165,0,0,0,61.992.108a4.429,4.429,0,0,0,3.6-1.512L64.476-2.61A2.766,2.766,0,0,1,62.226-1.6Zm-.468-5.292a1.8,1.8,0,0,1,1.836,1.926H59.67A2.089,2.089,0,0,1,61.758-6.894ZM72.216-8.6A2.368,2.368,0,0,0,69.93-6.66h-.054a9.629,9.629,0,0,0-.27-1.908L67.914-8.5V0h2.2V-4.212c0-1.53.882-2.3,1.836-2.3a1.5,1.5,0,0,1,.918.27l.558-2.142A3.2,3.2,0,0,0,72.216-8.6Zm7.452,3.1,1.944-.126a2.151,2.151,0,0,0,.072-.576c0-1.386-1.4-2.394-3.438-2.394C76.1-8.6,74.7-7.56,74.7-5.976c0,3.114,4.9,2.2,4.9,3.672,0,.486-.486.81-1.476.81A4.782,4.782,0,0,1,75.4-2.52L74.3-1.17A5.6,5.6,0,0,0,78.174.108c2.25,0,3.654-.972,3.654-2.5-.036-3.258-5.04-1.89-5.04-3.672,0-.576.486-.99,1.386-.99.936,0,1.53.468,1.53,1.206A1.656,1.656,0,0,1,79.668-5.508Zm7.416,1.17a13.851,13.851,0,0,0-2.682-8.73l-1.818.81s2.376,2.736,2.376,7.92-2.376,7.92-2.376,7.92l1.818.81A13.851,13.851,0,0,0,87.084-4.338Z" transform="translate(130 331)"/><path d="M-22.32-11.88h-4.122V0h2.268V-3.582h2.142c2.736,0,4.59-1.422,4.59-4.158C-17.442-10.458-19.26-11.88-22.32-11.88Zm-.126,6.48h-1.728v-4.662h1.638c1.836,0,2.808.882,2.808,2.322C-19.728-6.228-20.718-5.4-22.446-5.4Zm11.394-3.2A2.368,2.368,0,0,0-13.338-6.66h-.054a9.629,9.629,0,0,0-.27-1.908l-1.692.072V0h2.2V-4.212c0-1.53.882-2.3,1.836-2.3a1.5,1.5,0,0,1,.918.27l.558-2.142A3.2,3.2,0,0,0-11.052-8.6Zm6.606,0A4.205,4.205,0,0,0-8.892-4.23,4.177,4.177,0,0,0-4.446.108,4.167,4.167,0,0,0,0-4.23,4.2,4.2,0,0,0-4.446-8.6Zm0,6.912A2.262,2.262,0,0,1-6.66-4.23,2.285,2.285,0,0,1-4.446-6.8,2.285,2.285,0,0,1-2.232-4.23,2.262,2.262,0,0,1-4.446-1.692Zm9.378-7.6A1.5,1.5,0,0,1,6.48-10.98a1.935,1.935,0,0,1,1.062.36l.666-1.746a4.231,4.231,0,0,0-1.98-.45A3.326,3.326,0,0,0,2.736-9.252V-8.5H1.476V-6.8h1.26V0h2.2V-6.8H7.668V-8.5H4.932Zm7.182-1.944a1.4,1.4,0,0,0-1.44-1.386,1.388,1.388,0,0,0-1.44,1.386,1.377,1.377,0,0,0,1.44,1.386A1.388,1.388,0,0,0,12.114-11.232ZM9.558,0h2.2V-8.568l-2.2.072ZM14.49,0h2.178V-12.708H14.49Zm9.216-1.6A2.383,2.383,0,0,1,21.15-3.726h5.9a3.808,3.808,0,0,0,.09-.882,3.717,3.717,0,0,0-3.906-4,4.119,4.119,0,0,0-4.3,4.374A4.165,4.165,0,0,0,23.472.108a4.429,4.429,0,0,0,3.6-1.512L25.956-2.61A2.766,2.766,0,0,1,23.706-1.6Zm-.468-5.292a1.8,1.8,0,0,1,1.836,1.926H21.15A2.089,2.089,0,0,1,23.238-6.894Z" transform="translate(934 155)" fill="#fff"/><path d="M-28.125-8.442l2.052-.5c-.234-1.152-1.134-3.06-4.32-3.06-2.484,0-4.14,1.494-4.14,3.474,0,4.14,6.282,2.79,6.282,5.418,0,.846-.738,1.368-2.106,1.368a5.163,5.163,0,0,1-3.366-1.368l-1.35,1.656A7.234,7.234,0,0,0-30.411.126c2.862,0,4.428-1.4,4.428-3.276,0-4.446-6.282-3.2-6.282-5.49,0-.9.738-1.458,1.926-1.458A2.031,2.031,0,0,1-28.125-8.442Zm8.784,6.84A2.383,2.383,0,0,1-21.9-3.726h5.9a3.808,3.808,0,0,0,.09-.882,3.717,3.717,0,0,0-3.906-4,4.119,4.119,0,0,0-4.3,4.374A4.165,4.165,0,0,0-19.575.108a4.429,4.429,0,0,0,3.6-1.512L-17.091-2.61A2.766,2.766,0,0,1-19.341-1.6Zm-.468-5.292a1.8,1.8,0,0,1,1.836,1.926H-21.9A2.089,2.089,0,0,1-19.809-6.894Zm11.718,4.68a2.267,2.267,0,0,1-1.44.468c-1.008,0-1.458-.558-1.458-1.764V-6.8h3.078V-8.5h-3.078v-2.52l-2.142.09V-8.5H-14.5V-6.8h1.314v3.366c0,2.358,1.08,3.546,3.294,3.546a4.625,4.625,0,0,0,2.43-.594Zm8.046,0a2.267,2.267,0,0,1-1.44.468c-1.008,0-1.458-.558-1.458-1.764V-6.8H.135V-8.5H-2.943v-2.52l-2.142.09V-8.5H-6.453V-6.8h1.314v3.366c0,2.358,1.08,3.546,3.294,3.546A4.625,4.625,0,0,0,.585-.486Zm4.914-9.018a1.4,1.4,0,0,0-1.44-1.386,1.388,1.388,0,0,0-1.44,1.386,1.377,1.377,0,0,0,1.44,1.386A1.388,1.388,0,0,0,4.869-11.232ZM2.313,0h2.2V-8.568l-2.2.072Zm9.774-8.6a2.9,2.9,0,0,0-2.844,1.89H9.189a9,9,0,0,0-.27-1.854L7.227-8.5V0h2.2V-4.41a2.137,2.137,0,0,1,2.034-2.322,1.6,1.6,0,0,1,1.656,1.818V0h2.2V-5.22A3.077,3.077,0,0,0,12.087-8.6ZM22.725-1.422H20.853c-1.044,0-1.512-.144-1.512-.63,0-.288.234-.468.666-.558a5.086,5.086,0,0,0,1.548.234c2.25,0,3.744-1.26,3.744-3.114a2.771,2.771,0,0,0-.63-1.836,2.3,2.3,0,0,0,1.71-2.3l-1.692-.432c0,.954-.234,1.728-.828,2.034a4.569,4.569,0,0,0-2.322-.558c-2.232,0-3.726,1.242-3.726,3.1a2.869,2.869,0,0,0,.954,2.2,1.607,1.607,0,0,0-1.188,1.53,1.713,1.713,0,0,0,.936,1.548,1.817,1.817,0,0,0-1.44,1.728c0,1.35,1.4,2.25,4.5,2.25,3.51,0,4.572-1.314,4.572-2.718C26.145-.612,24.777-1.422,22.725-1.422ZM19.9-5.49a1.5,1.5,0,0,1,1.674-1.476,1.519,1.519,0,0,1,1.674,1.494,1.505,1.505,0,0,1-1.71,1.458A1.456,1.456,0,0,1,19.9-5.49Zm1.674,7.668c-1.818,0-2.52-.324-2.52-1.008,0-.522.414-.9,1.728-.9h1.692c1.1,0,1.638.18,1.638.864C24.111,1.836,23.427,2.178,21.573,2.178ZM32.7-5.508l1.944-.126a2.151,2.151,0,0,0,.072-.576c0-1.386-1.4-2.394-3.438-2.394-2.142,0-3.546,1.044-3.546,2.628,0,3.114,4.9,2.2,4.9,3.672,0,.486-.486.81-1.476.81A4.782,4.782,0,0,1,28.431-2.52l-1.1,1.35A5.6,5.6,0,0,0,31.2.108c2.25,0,3.654-.972,3.654-2.5-.036-3.258-5.04-1.89-5.04-3.672,0-.576.486-.99,1.386-.99.936,0,1.53.468,1.53,1.206A1.657,1.657,0,0,1,32.7-5.508Z" transform="translate(934 243)"/><path d="M-63.306-8.442l2.052-.5c-.234-1.152-1.134-3.06-4.32-3.06-2.484,0-4.14,1.494-4.14,3.474,0,4.14,6.282,2.79,6.282,5.418,0,.846-.738,1.368-2.106,1.368A5.163,5.163,0,0,1-68.9-3.114l-1.35,1.656A7.234,7.234,0,0,0-65.592.126c2.862,0,4.428-1.4,4.428-3.276,0-4.446-6.282-3.2-6.282-5.49,0-.9.738-1.458,1.926-1.458A2.031,2.031,0,0,1-63.306-8.442Zm8.37-.162A4.181,4.181,0,0,0-59.31-4.212a4.15,4.15,0,0,0,4.5,4.32A4.6,4.6,0,0,0-51.156-1.35l-1.116-1.368a3.033,3.033,0,0,1-2.412,1.026,2.3,2.3,0,0,1-2.394-2.592c0-1.512.846-2.52,2.124-2.52a1.457,1.457,0,0,1,1.6,1.494,1.7,1.7,0,0,1-.036.4l1.962-.126a2.908,2.908,0,0,0,.054-.594C-51.372-7.29-52.722-8.6-54.936-8.6Zm10.728,0a2.788,2.788,0,0,0-2.646,1.53h-.054v-5.634h-2.16V0h2.2V-4.41a2.127,2.127,0,0,1,2.034-2.322,1.59,1.59,0,0,1,1.656,1.818V0h2.2V-5.22A3.068,3.068,0,0,0-44.208-8.6Zm10.17,7a2.383,2.383,0,0,1-2.556-2.124h5.9a3.808,3.808,0,0,0,.09-.882,3.717,3.717,0,0,0-3.906-4,4.119,4.119,0,0,0-4.3,4.374A4.165,4.165,0,0,0-34.272.108a4.429,4.429,0,0,0,3.6-1.512L-31.788-2.61A2.766,2.766,0,0,1-34.038-1.6Zm-.468-5.292A1.8,1.8,0,0,1-32.67-4.968h-3.924A2.089,2.089,0,0,1-34.506-6.894Zm12.33-5.814v5.346A3.062,3.062,0,0,0-24.822-8.6c-2.25,0-3.96,1.638-3.96,4.374,0,2.538,1.53,4.338,3.852,4.338A3.02,3.02,0,0,0-22-1.71h.054A9.779,9.779,0,0,0-21.726.072L-19.98,0V-12.708Zm-2.2,10.98a2.219,2.219,0,0,1-2.2-2.5c0-1.548.846-2.538,2.124-2.538A2.228,2.228,0,0,1-22.176-4.5V-4A2.226,2.226,0,0,1-24.372-1.728ZM-11.628-8.5v4.41a2.122,2.122,0,0,1-1.89,2.322c-1.08,0-1.638-.72-1.638-1.818V-8.5h-2.2v5.22a3.073,3.073,0,0,0,3.2,3.384,2.778,2.778,0,0,0,2.7-1.764h.036A10.672,10.672,0,0,0-11.16.072L-9.432,0V-8.5ZM-6.714,0h2.178V-12.708H-6.714ZM2.5-1.6A2.383,2.383,0,0,1-.054-3.726h5.9a3.808,3.808,0,0,0,.09-.882,3.717,3.717,0,0,0-3.906-4,4.119,4.119,0,0,0-4.3,4.374A4.165,4.165,0,0,0,2.268.108,4.429,4.429,0,0,0,5.868-1.4L4.752-2.61A2.766,2.766,0,0,1,2.5-1.6ZM2.034-6.894A1.8,1.8,0,0,1,3.87-4.968H-.054A2.089,2.089,0,0,1,2.034-6.894ZM16.776-11.88h-4V0h4.554C20.7,0,22.77-1.98,22.77-5.94,22.77-9.576,20.628-11.88,16.776-11.88Zm.342,10.062h-2.07v-8.244h1.494c2.52,0,3.924,1.35,3.924,4.122C20.466-3.024,19.116-1.818,17.118-1.818ZM29.466-1.6A2.383,2.383,0,0,1,26.91-3.726h5.9a3.808,3.808,0,0,0,.09-.882A3.717,3.717,0,0,0,29-8.6,4.119,4.119,0,0,0,24.7-4.23,4.165,4.165,0,0,0,29.232.108a4.429,4.429,0,0,0,3.6-1.512L31.716-2.61A2.766,2.766,0,0,1,29.466-1.6ZM29-6.894a1.8,1.8,0,0,1,1.836,1.926H26.91A2.089,2.089,0,0,1,29-6.894Zm11.718,4.68a2.267,2.267,0,0,1-1.44.468c-1.008,0-1.458-.558-1.458-1.764V-6.8H40.9V-8.5H37.818v-2.52l-2.142.09V-8.5H34.308V-6.8h1.314v3.366c0,2.358,1.08,3.546,3.294,3.546a4.625,4.625,0,0,0,2.43-.594Zm10.422.468a1.585,1.585,0,0,1-.306.036c-.36,0-.5-.144-.5-.576V-5.274c0-2.07-1.35-3.33-3.78-3.33-2.286,0-3.672,1.08-3.672,2.682a2.906,2.906,0,0,0,.108.792l1.944-.324a.879.879,0,0,1-.072-.342c0-.7.576-1.116,1.62-1.116a1.5,1.5,0,0,1,1.71,1.584v.414h-.144c-3.348.054-5.418.648-5.418,2.682,0,1.4,1.026,2.34,2.88,2.34a2.868,2.868,0,0,0,2.79-1.368c.144.918.756,1.35,1.854,1.35a4.8,4.8,0,0,0,1.08-.126Zm-5.058.18c-.846,0-1.314-.324-1.314-.9,0-.846.972-1.206,3.276-1.242h.144v.72C48.186-2.268,47.412-1.566,46.08-1.566Zm9.81-9.666a1.4,1.4,0,0,0-1.44-1.386,1.388,1.388,0,0,0-1.44,1.386,1.377,1.377,0,0,0,1.44,1.386A1.388,1.388,0,0,0,55.89-11.232ZM53.334,0h2.2V-8.568l-2.2.072Zm4.932,0h2.178V-12.708H58.266Zm9.612-5.508,1.944-.126a2.151,2.151,0,0,0,.072-.576c0-1.386-1.4-2.394-3.438-2.394-2.142,0-3.546,1.044-3.546,2.628,0,3.114,4.9,2.2,4.9,3.672,0,.486-.486.81-1.476.81A4.782,4.782,0,0,1,63.612-2.52l-1.1,1.35A5.6,5.6,0,0,0,66.384.108c2.25,0,3.654-.972,3.654-2.5C70-5.652,65-4.284,65-6.066c0-.576.486-.99,1.386-.99.936,0,1.53.468,1.53,1.206A1.656,1.656,0,0,1,67.878-5.508Z" transform="translate(934 331)"/><path d="M-53.721-8.442l2.052-.5c-.234-1.152-1.134-3.06-4.32-3.06-2.484,0-4.14,1.494-4.14,3.474,0,4.14,6.282,2.79,6.282,5.418,0,.846-.738,1.368-2.106,1.368a5.163,5.163,0,0,1-3.366-1.368l-1.35,1.656A7.235,7.235,0,0,0-56.007.126c2.862,0,4.428-1.4,4.428-3.276,0-4.446-6.282-3.2-6.282-5.49,0-.9.738-1.458,1.926-1.458A2.031,2.031,0,0,1-53.721-8.442Zm10.134,6.228a2.267,2.267,0,0,1-1.44.468c-1.008,0-1.458-.558-1.458-1.764V-6.8h3.078V-8.5h-3.078v-2.52l-2.142.09V-8.5h-1.368V-6.8h1.314v3.366c0,2.358,1.08,3.546,3.294,3.546a4.625,4.625,0,0,0,2.43-.594ZM-35.595-8.5v4.41a2.122,2.122,0,0,1-1.89,2.322c-1.08,0-1.638-.72-1.638-1.818V-8.5h-2.2v5.22a3.073,3.073,0,0,0,3.2,3.384,2.778,2.778,0,0,0,2.7-1.764h.036A10.672,10.672,0,0,0-35.127.072L-33.4,0V-8.5Zm11.07-4.212v5.346A3.062,3.062,0,0,0-27.171-8.6c-2.25,0-3.96,1.638-3.96,4.374,0,2.538,1.53,4.338,3.852,4.338A3.02,3.02,0,0,0-24.345-1.71h.054A9.779,9.779,0,0,0-24.075.072L-22.329,0V-12.708Zm-2.2,10.98a2.219,2.219,0,0,1-2.2-2.5c0-1.548.846-2.538,2.124-2.538A2.228,2.228,0,0,1-24.525-4.5V-4A2.226,2.226,0,0,1-26.721-1.728Zm11.5,2.97L-11.475-8.5h-2.214l-1.89,5.31a6.787,6.787,0,0,0-.288,1.08H-15.9a4.992,4.992,0,0,0-.27-1.08L-18.1-8.5h-2.376l3.546,8.82-.234.558a1.513,1.513,0,0,1-1.494,1.1,2.392,2.392,0,0,1-.99-.234l-.342,1.71a3.573,3.573,0,0,0,1.512.306A3.369,3.369,0,0,0-15.219,1.242ZM1.2-6.192v-.054a2.263,2.263,0,0,0,1.908-2.43c0-2.052-1.512-3.2-4.032-3.2H-5.409V0H-.441c2.61,0,4.068-1.17,4.068-3.222A2.93,2.93,0,0,0,1.2-6.192ZM.837-8.478c0,.936-.7,1.6-2.034,1.6H-3.159v-3.24h1.8C.135-10.116.837-9.54.837-8.478ZM-.819-1.764h-2.34V-5.292H-.981c1.332,0,2.322.594,2.322,1.818C1.341-2.3.441-1.764-.819-1.764ZM11.6-8.5v4.41a2.122,2.122,0,0,1-1.89,2.322c-1.08,0-1.638-.72-1.638-1.818V-8.5h-2.2v5.22A3.073,3.073,0,0,0,9.081.108a2.778,2.778,0,0,0,2.7-1.764h.036A10.672,10.672,0,0,0,12.069.072L13.8,0V-8.5Zm11.07-4.212v5.346A3.062,3.062,0,0,0,20.025-8.6c-2.25,0-3.96,1.638-3.96,4.374,0,2.538,1.53,4.338,3.852,4.338A3.02,3.02,0,0,0,22.851-1.71H22.9A9.779,9.779,0,0,0,23.121.072L24.867,0V-12.708Zm-2.2,10.98a2.219,2.219,0,0,1-2.2-2.5c0-1.548.846-2.538,2.124-2.538A2.228,2.228,0,0,1,22.671-4.5V-4A2.226,2.226,0,0,1,20.475-1.728Zm13.266-10.98v5.346A3.062,3.062,0,0,0,31.095-8.6c-2.25,0-3.96,1.638-3.96,4.374,0,2.538,1.53,4.338,3.852,4.338A3.02,3.02,0,0,0,33.921-1.71h.054A9.78,9.78,0,0,0,34.191.072L35.937,0V-12.708Zm-2.2,10.98a2.219,2.219,0,0,1-2.2-2.5c0-1.548.846-2.538,2.124-2.538A2.228,2.228,0,0,1,33.741-4.5V-4A2.226,2.226,0,0,1,31.545-1.728Zm9.666-9.5a1.4,1.4,0,0,0-1.44-1.386,1.388,1.388,0,0,0-1.44,1.386,1.377,1.377,0,0,0,1.44,1.386A1.388,1.388,0,0,0,41.211-11.232ZM38.655,0h2.2V-8.568l-2.2.072Zm9.234-1.6a2.383,2.383,0,0,1-2.556-2.124h5.9a3.808,3.808,0,0,0,.09-.882,3.717,3.717,0,0,0-3.906-4,4.119,4.119,0,0,0-4.3,4.374A4.165,4.165,0,0,0,47.655.108a4.429,4.429,0,0,0,3.6-1.512L50.139-2.61A2.766,2.766,0,0,1,47.889-1.6Zm-.468-5.292a1.8,1.8,0,0,1,1.836,1.926H45.333A2.089,2.089,0,0,1,47.421-6.894ZM58.293-5.508l1.944-.126a2.151,2.151,0,0,0,.072-.576c0-1.386-1.4-2.394-3.438-2.394-2.142,0-3.546,1.044-3.546,2.628,0,3.114,4.9,2.2,4.9,3.672,0,.486-.486.81-1.476.81A4.782,4.782,0,0,1,54.027-2.52l-1.1,1.35A5.6,5.6,0,0,0,56.8.108c2.25,0,3.654-.972,3.654-2.5-.036-3.258-5.04-1.89-5.04-3.672,0-.576.486-.99,1.386-.99.936,0,1.53.468,1.53,1.206A1.657,1.657,0,0,1,58.293-5.508Z" transform="translate(1202 155)" fill="#fff"/><path d="M-76.707-8.442l2.052-.5c-.234-1.152-1.134-3.06-4.32-3.06-2.484,0-4.14,1.494-4.14,3.474,0,4.14,6.282,2.79,6.282,5.418,0,.846-.738,1.368-2.106,1.368a5.163,5.163,0,0,1-3.366-1.368l-1.35,1.656A7.234,7.234,0,0,0-78.993.126c2.862,0,4.428-1.4,4.428-3.276,0-4.446-6.282-3.2-6.282-5.49,0-.9.738-1.458,1.926-1.458A2.031,2.031,0,0,1-76.707-8.442Zm10.134,6.228a2.267,2.267,0,0,1-1.44.468c-1.008,0-1.458-.558-1.458-1.764V-6.8h3.078V-8.5h-3.078v-2.52l-2.142.09V-8.5h-1.368V-6.8h1.314v3.366c0,2.358,1.08,3.546,3.294,3.546a4.625,4.625,0,0,0,2.43-.594ZM-58.581-8.5v4.41a2.122,2.122,0,0,1-1.89,2.322c-1.08,0-1.638-.72-1.638-1.818V-8.5h-2.2v5.22A3.073,3.073,0,0,0-61.1.108a2.778,2.778,0,0,0,2.7-1.764h.036A10.672,10.672,0,0,0-58.113.072L-56.385,0V-8.5Zm11.07-4.212v5.346A3.062,3.062,0,0,0-50.157-8.6c-2.25,0-3.96,1.638-3.96,4.374,0,2.538,1.53,4.338,3.852,4.338A3.02,3.02,0,0,0-47.331-1.71h.054A9.78,9.78,0,0,0-47.061.072L-45.315,0V-12.708Zm-2.2,10.98a2.219,2.219,0,0,1-2.2-2.5c0-1.548.846-2.538,2.124-2.538A2.228,2.228,0,0,1-47.511-4.5V-4A2.226,2.226,0,0,1-49.707-1.728Zm11.5,2.97L-34.461-8.5h-2.214l-1.89,5.31a6.787,6.787,0,0,0-.288,1.08h-.036a4.992,4.992,0,0,0-.27-1.08L-41.085-8.5h-2.376l3.546,8.82-.234.558a1.513,1.513,0,0,1-1.494,1.1,2.392,2.392,0,0,1-.99-.234l-.342,1.71a3.573,3.573,0,0,0,1.512.306A3.369,3.369,0,0,0-38.2,1.242Zm16.416-7.434v-.054a2.263,2.263,0,0,0,1.908-2.43c0-2.052-1.512-3.2-4.032-3.2h-4.482V0h4.968c2.61,0,4.068-1.17,4.068-3.222A2.93,2.93,0,0,0-21.789-6.192Zm-.36-2.286c0,.936-.7,1.6-2.034,1.6h-1.962v-3.24h1.8C-22.851-10.116-22.149-9.54-22.149-8.478ZM-23.8-1.764h-2.34V-5.292h2.178c1.332,0,2.322.594,2.322,1.818C-21.645-2.3-22.545-1.764-23.8-1.764ZM-11.385-8.5v4.41a2.122,2.122,0,0,1-1.89,2.322c-1.08,0-1.638-.72-1.638-1.818V-8.5h-2.2v5.22A3.073,3.073,0,0,0-13.9.108a2.778,2.778,0,0,0,2.7-1.764h.036A10.672,10.672,0,0,0-10.917.072L-9.189,0V-8.5Zm11.07-4.212v5.346A3.062,3.062,0,0,0-2.961-8.6c-2.25,0-3.96,1.638-3.96,4.374,0,2.538,1.53,4.338,3.852,4.338A3.02,3.02,0,0,0-.135-1.71h.054A9.779,9.779,0,0,0,.135.072L1.881,0V-12.708Zm-2.2,10.98a2.219,2.219,0,0,1-2.2-2.5c0-1.548.846-2.538,2.124-2.538A2.228,2.228,0,0,1-.315-4.5V-4A2.226,2.226,0,0,1-2.511-1.728Zm13.266-10.98v5.346A3.062,3.062,0,0,0,8.109-8.6c-2.25,0-3.96,1.638-3.96,4.374C4.149-1.692,5.679.108,8,.108A3.02,3.02,0,0,0,10.935-1.71h.054A9.779,9.779,0,0,0,11.2.072L12.951,0V-12.708Zm-2.2,10.98a2.219,2.219,0,0,1-2.2-2.5c0-1.548.846-2.538,2.124-2.538A2.228,2.228,0,0,1,10.755-4.5V-4A2.226,2.226,0,0,1,8.559-1.728Zm11.5,2.97L23.805-8.5H21.591L19.7-3.186a6.787,6.787,0,0,0-.288,1.08h-.036a4.992,4.992,0,0,0-.27-1.08L17.181-8.5H14.8L18.351.324l-.234.558a1.513,1.513,0,0,1-1.494,1.1,2.392,2.392,0,0,1-.99-.234l-.342,1.71a3.573,3.573,0,0,0,1.512.306A3.369,3.369,0,0,0,20.061,1.242ZM33.993-11.88H29.871V0h2.268V-3.582h2.142c2.736,0,4.59-1.422,4.59-4.158C38.871-10.458,37.053-11.88,33.993-11.88ZM33.867-5.4H32.139v-4.662h1.638c1.836,0,2.808.882,2.808,2.322C36.585-6.228,35.6-5.4,33.867-5.4ZM45.261-8.6A2.368,2.368,0,0,0,42.975-6.66h-.054a9.629,9.629,0,0,0-.27-1.908L40.959-8.5V0h2.2V-4.212c0-1.53.882-2.3,1.836-2.3a1.5,1.5,0,0,1,.918.27l.558-2.142A3.2,3.2,0,0,0,45.261-8.6Zm6.606,0A4.205,4.205,0,0,0,47.421-4.23,4.177,4.177,0,0,0,51.867.108,4.167,4.167,0,0,0,56.313-4.23,4.2,4.2,0,0,0,51.867-8.6Zm0,6.912A2.262,2.262,0,0,1,49.653-4.23,2.285,2.285,0,0,1,51.867-6.8,2.285,2.285,0,0,1,54.081-4.23,2.262,2.262,0,0,1,51.867-1.692Zm9.378-7.6a1.5,1.5,0,0,1,1.548-1.692,1.935,1.935,0,0,1,1.062.36l.666-1.746a4.231,4.231,0,0,0-1.98-.45,3.326,3.326,0,0,0-3.492,3.564V-8.5h-1.26V-6.8h1.26V0h2.2V-6.8h2.736V-8.5H61.245Zm7.182-1.944a1.4,1.4,0,0,0-1.44-1.386,1.388,1.388,0,0,0-1.44,1.386,1.377,1.377,0,0,0,1.44,1.386A1.388,1.388,0,0,0,68.427-11.232ZM65.871,0h2.2V-8.568l-2.2.072ZM70.8,0h2.178V-12.708H70.8Zm9.216-1.6a2.383,2.383,0,0,1-2.556-2.124h5.9a3.808,3.808,0,0,0,.09-.882,3.717,3.717,0,0,0-3.906-4,4.119,4.119,0,0,0-4.3,4.374A4.165,4.165,0,0,0,79.785.108a4.429,4.429,0,0,0,3.6-1.512L82.269-2.61A2.766,2.766,0,0,1,80.019-1.6Zm-.468-5.292a1.8,1.8,0,0,1,1.836,1.926H77.463A2.089,2.089,0,0,1,79.551-6.894Z" transform="translate(1202 243)"/><path d="M-85.1,0h2.3l-4.266-11.88h-2.412L-93.771,0h2.34l.9-2.664h4.536Zm-4.842-4.41,1.278-3.762A11.852,11.852,0,0,0-88.3-9.5h.054c.108.45.234.954.36,1.314l1.3,3.78Zm14.922-8.3v5.346A3.062,3.062,0,0,0-77.661-8.6c-2.25,0-3.96,1.638-3.96,4.374,0,2.538,1.53,4.338,3.852,4.338A3.02,3.02,0,0,0-74.835-1.71h.054A9.78,9.78,0,0,0-74.565.072L-72.819,0V-12.708Zm-2.2,10.98a2.219,2.219,0,0,1-2.2-2.5c0-1.548.846-2.538,2.124-2.538A2.228,2.228,0,0,1-75.015-4.5V-4A2.226,2.226,0,0,1-77.211-1.728Zm13.266-10.98v5.346A3.062,3.062,0,0,0-66.591-8.6c-2.25,0-3.96,1.638-3.96,4.374,0,2.538,1.53,4.338,3.852,4.338A3.02,3.02,0,0,0-63.765-1.71h.054A9.78,9.78,0,0,0-63.495.072L-61.749,0V-12.708Zm-2.2,10.98a2.219,2.219,0,0,1-2.2-2.5c0-1.548.846-2.538,2.124-2.538A2.228,2.228,0,0,1-63.945-4.5V-4A2.226,2.226,0,0,1-66.141-1.728ZM-44.577-11.88h-2.214l.018,6.462c0,.99.054,1.89.09,2.2l-.108.054a24.409,24.409,0,0,0-1.3-2.232l-4.23-6.48h-2.142V0h2.232l-.036-6.282a17.284,17.284,0,0,0-.09-2.142l.09-.054c.234.4.864,1.476,1.35,2.214L-46.809,0h2.232ZM-37.359-1.6a2.383,2.383,0,0,1-2.556-2.124h5.9a3.808,3.808,0,0,0,.09-.882,3.717,3.717,0,0,0-3.906-4,4.119,4.119,0,0,0-4.3,4.374A4.165,4.165,0,0,0-37.593.108a4.429,4.429,0,0,0,3.6-1.512L-35.109-2.61A2.766,2.766,0,0,1-37.359-1.6Zm-.468-5.292a1.8,1.8,0,0,1,1.836,1.926h-3.924A2.089,2.089,0,0,1-37.827-6.894Zm16.236-1.6-1.35,5.274c-.126.468-.2.9-.234,1.116h-.054c-.036-.216-.144-.684-.252-1.116L-24.957-8.5h-2.016l-1.494,5.31c-.108.432-.2.792-.252,1.08h-.054c-.036-.288-.126-.594-.234-1.08L-30.375-8.5H-32.7l2.61,8.5h2.5l1.44-4.806c.054-.252.126-.666.144-.846h.054a6.239,6.239,0,0,0,.162.846L-24.4,0h2.538l2.5-8.5Zm14.778.054,2.052-.5C-5-10.1-5.9-12.006-9.081-12.006c-2.484,0-4.14,1.494-4.14,3.474,0,4.14,6.282,2.79,6.282,5.418,0,.846-.738,1.368-2.106,1.368a5.163,5.163,0,0,1-3.366-1.368l-1.35,1.656A7.234,7.234,0,0,0-9.1.126c2.862,0,4.428-1.4,4.428-3.276,0-4.446-6.282-3.2-6.282-5.49,0-.9.738-1.458,1.926-1.458A2.031,2.031,0,0,1-6.813-8.442ZM3.321-2.214a2.267,2.267,0,0,1-1.44.468C.873-1.746.423-2.3.423-3.51V-6.8H3.5V-8.5H.423v-2.52l-2.142.09V-8.5H-3.087V-6.8h1.314v3.366C-1.773-1.08-.693.108,1.521.108a4.625,4.625,0,0,0,2.43-.594ZM11.313-8.5v4.41a2.122,2.122,0,0,1-1.89,2.322c-1.08,0-1.638-.72-1.638-1.818V-8.5h-2.2v5.22A3.073,3.073,0,0,0,8.793.108a2.778,2.778,0,0,0,2.7-1.764h.036A10.672,10.672,0,0,0,11.781.072L13.509,0V-8.5Zm11.07-4.212v5.346A3.062,3.062,0,0,0,19.737-8.6c-2.25,0-3.96,1.638-3.96,4.374,0,2.538,1.53,4.338,3.852,4.338A3.02,3.02,0,0,0,22.563-1.71h.054A9.779,9.779,0,0,0,22.833.072L24.579,0V-12.708Zm-2.2,10.98a2.219,2.219,0,0,1-2.2-2.5c0-1.548.846-2.538,2.124-2.538A2.228,2.228,0,0,1,22.383-4.5V-4A2.226,2.226,0,0,1,20.187-1.728Zm11.5,2.97L35.433-8.5H33.219l-1.89,5.31a6.787,6.787,0,0,0-.288,1.08h-.036a4.992,4.992,0,0,0-.27-1.08L28.809-8.5H26.433L29.979.324l-.234.558a1.513,1.513,0,0,1-1.494,1.1,2.392,2.392,0,0,1-.99-.234l-.342,1.71a3.573,3.573,0,0,0,1.512.306A3.369,3.369,0,0,0,31.689,1.242ZM48.105-6.192v-.054a2.263,2.263,0,0,0,1.908-2.43c0-2.052-1.512-3.2-4.032-3.2H41.5V0h4.968c2.61,0,4.068-1.17,4.068-3.222A2.93,2.93,0,0,0,48.105-6.192Zm-.36-2.286c0,.936-.7,1.6-2.034,1.6H43.749v-3.24h1.8C47.043-10.116,47.745-9.54,47.745-8.478ZM46.089-1.764h-2.34V-5.292h2.178c1.332,0,2.322.594,2.322,1.818C48.249-2.3,47.349-1.764,46.089-1.764ZM58.509-8.5v4.41a2.122,2.122,0,0,1-1.89,2.322c-1.08,0-1.638-.72-1.638-1.818V-8.5h-2.2v5.22a3.073,3.073,0,0,0,3.2,3.384,2.778,2.778,0,0,0,2.7-1.764h.036A10.672,10.672,0,0,0,58.977.072L60.705,0V-8.5Zm11.07-4.212v5.346A3.062,3.062,0,0,0,66.933-8.6c-2.25,0-3.96,1.638-3.96,4.374,0,2.538,1.53,4.338,3.852,4.338A3.02,3.02,0,0,0,69.759-1.71h.054A9.78,9.78,0,0,0,70.029.072L71.775,0V-12.708Zm-2.2,10.98a2.219,2.219,0,0,1-2.2-2.5c0-1.548.846-2.538,2.124-2.538A2.228,2.228,0,0,1,69.579-4.5V-4A2.226,2.226,0,0,1,67.383-1.728Zm13.266-10.98v5.346A3.062,3.062,0,0,0,78-8.6c-2.25,0-3.96,1.638-3.96,4.374,0,2.538,1.53,4.338,3.852,4.338A3.02,3.02,0,0,0,80.829-1.71h.054A9.78,9.78,0,0,0,81.1.072L82.845,0V-12.708Zm-2.2,10.98a2.219,2.219,0,0,1-2.2-2.5c0-1.548.846-2.538,2.124-2.538A2.228,2.228,0,0,1,80.649-4.5V-4A2.226,2.226,0,0,1,78.453-1.728Zm11.5,2.97L93.7-8.5H91.485l-1.89,5.31a6.787,6.787,0,0,0-.288,1.08h-.036A4.993,4.993,0,0,0,89-3.186L87.075-8.5H84.7L88.245.324l-.234.558a1.513,1.513,0,0,1-1.494,1.1,2.392,2.392,0,0,1-.99-.234l-.342,1.71a3.573,3.573,0,0,0,1.512.306A3.369,3.369,0,0,0,89.955,1.242Z" transform="translate(1202 331)"/><path d="M-66.078-8.442l2.052-.5c-.234-1.152-1.134-3.06-4.32-3.06-2.484,0-4.14,1.494-4.14,3.474,0,4.14,6.282,2.79,6.282,5.418,0,.846-.738,1.368-2.106,1.368a5.163,5.163,0,0,1-3.366-1.368l-1.35,1.656A7.234,7.234,0,0,0-68.364.126c2.862,0,4.428-1.4,4.428-3.276,0-4.446-6.282-3.2-6.282-5.49,0-.9.738-1.458,1.926-1.458A2.031,2.031,0,0,1-66.078-8.442Zm8.37-.162a4.181,4.181,0,0,0-4.374,4.392,4.15,4.15,0,0,0,4.5,4.32A4.6,4.6,0,0,0-53.928-1.35l-1.116-1.368a3.033,3.033,0,0,1-2.412,1.026A2.3,2.3,0,0,1-59.85-4.284c0-1.512.846-2.52,2.124-2.52a1.457,1.457,0,0,1,1.6,1.494,1.7,1.7,0,0,1-.036.4L-54.2-5.04a2.908,2.908,0,0,0,.054-.594C-54.144-7.29-55.494-8.6-57.708-8.6Zm10.728,0a2.788,2.788,0,0,0-2.646,1.53h-.054v-5.634h-2.16V0h2.2V-4.41A2.127,2.127,0,0,1-47.61-6.732a1.59,1.59,0,0,1,1.656,1.818V0h2.2V-5.22A3.068,3.068,0,0,0-46.98-8.6Zm10.17,7a2.383,2.383,0,0,1-2.556-2.124h5.9a3.808,3.808,0,0,0,.09-.882,3.717,3.717,0,0,0-3.906-4,4.119,4.119,0,0,0-4.3,4.374A4.165,4.165,0,0,0-37.044.108a4.429,4.429,0,0,0,3.6-1.512L-34.56-2.61A2.766,2.766,0,0,1-36.81-1.6Zm-.468-5.292a1.8,1.8,0,0,1,1.836,1.926h-3.924A2.089,2.089,0,0,1-37.278-6.894Zm12.33-5.814v5.346A3.062,3.062,0,0,0-27.594-8.6c-2.25,0-3.96,1.638-3.96,4.374,0,2.538,1.53,4.338,3.852,4.338A3.02,3.02,0,0,0-24.768-1.71h.054A9.779,9.779,0,0,0-24.5.072L-22.752,0V-12.708Zm-2.2,10.98a2.219,2.219,0,0,1-2.2-2.5c0-1.548.846-2.538,2.124-2.538A2.228,2.228,0,0,1-24.948-4.5V-4A2.226,2.226,0,0,1-27.144-1.728ZM-14.4-8.5v4.41a2.122,2.122,0,0,1-1.89,2.322c-1.08,0-1.638-.72-1.638-1.818V-8.5h-2.2v5.22A3.073,3.073,0,0,0-16.92.108a2.778,2.778,0,0,0,2.7-1.764h.036A10.672,10.672,0,0,0-13.932.072L-12.2,0V-8.5ZM-9.486,0h2.178V-12.708H-9.486ZM-.27-1.6A2.383,2.383,0,0,1-2.826-3.726h5.9a3.808,3.808,0,0,0,.09-.882,3.717,3.717,0,0,0-3.906-4A4.119,4.119,0,0,0-5.04-4.23,4.165,4.165,0,0,0-.5.108,4.429,4.429,0,0,0,3.1-1.4L1.98-2.61A2.766,2.766,0,0,1-.27-1.6ZM-.738-6.894A1.8,1.8,0,0,1,1.1-4.968H-2.826A2.089,2.089,0,0,1-.738-6.894ZM16.056-8.442l2.052-.5c-.234-1.152-1.134-3.06-4.32-3.06-2.484,0-4.14,1.494-4.14,3.474,0,4.14,6.282,2.79,6.282,5.418,0,.846-.738,1.368-2.106,1.368a5.163,5.163,0,0,1-3.366-1.368L9.108-1.458A7.234,7.234,0,0,0,13.77.126c2.862,0,4.428-1.4,4.428-3.276,0-4.446-6.282-3.2-6.282-5.49,0-.9.738-1.458,1.926-1.458A2.031,2.031,0,0,1,16.056-8.442ZM24.84-1.6a2.383,2.383,0,0,1-2.556-2.124h5.9a3.808,3.808,0,0,0,.09-.882,3.717,3.717,0,0,0-3.906-4,4.119,4.119,0,0,0-4.3,4.374A4.165,4.165,0,0,0,24.606.108a4.429,4.429,0,0,0,3.6-1.512L27.09-2.61A2.766,2.766,0,0,1,24.84-1.6Zm-.468-5.292a1.8,1.8,0,0,1,1.836,1.926H22.284A2.089,2.089,0,0,1,24.372-6.894ZM35.244-5.508l1.944-.126a2.151,2.151,0,0,0,.072-.576c0-1.386-1.4-2.394-3.438-2.394-2.142,0-3.546,1.044-3.546,2.628,0,3.114,4.9,2.2,4.9,3.672,0,.486-.486.81-1.476.81A4.782,4.782,0,0,1,30.978-2.52l-1.1,1.35A5.6,5.6,0,0,0,33.75.108c2.25,0,3.654-.972,3.654-2.5-.036-3.258-5.04-1.89-5.04-3.672,0-.576.486-.99,1.386-.99.936,0,1.53.468,1.53,1.206A1.657,1.657,0,0,1,35.244-5.508Zm9.126,0,1.944-.126a2.151,2.151,0,0,0,.072-.576c0-1.386-1.4-2.394-3.438-2.394C40.806-8.6,39.4-7.56,39.4-5.976c0,3.114,4.9,2.2,4.9,3.672,0,.486-.486.81-1.476.81A4.782,4.782,0,0,1,40.1-2.52l-1.1,1.35A5.6,5.6,0,0,0,42.876.108c2.25,0,3.654-.972,3.654-2.5-.036-3.258-5.04-1.89-5.04-3.672,0-.576.486-.99,1.386-.99.936,0,1.53.468,1.53,1.206A1.657,1.657,0,0,1,44.37-5.508Zm7-5.724a1.4,1.4,0,0,0-1.44-1.386,1.388,1.388,0,0,0-1.44,1.386,1.377,1.377,0,0,0,1.44,1.386A1.388,1.388,0,0,0,51.372-11.232ZM48.816,0h2.2V-8.568l-2.2.072Zm8.892-8.6A4.205,4.205,0,0,0,53.262-4.23,4.177,4.177,0,0,0,57.708.108,4.167,4.167,0,0,0,62.154-4.23,4.2,4.2,0,0,0,57.708-8.6Zm0,6.912A2.262,2.262,0,0,1,55.494-4.23,2.285,2.285,0,0,1,57.708-6.8,2.285,2.285,0,0,1,59.922-4.23,2.262,2.262,0,0,1,57.708-1.692ZM69.246-8.6A2.9,2.9,0,0,0,66.4-6.714h-.054a9,9,0,0,0-.27-1.854L64.386-8.5V0h2.2V-4.41a2.137,2.137,0,0,1,2.034-2.322,1.6,1.6,0,0,1,1.656,1.818V0h2.2V-5.22A3.077,3.077,0,0,0,69.246-8.6Z" transform="translate(666 419)"/><path d="M-86.31,0h2.25V-11.88h-2.25Zm10.026-8.6a2.9,2.9,0,0,0-2.844,1.89h-.054a9,9,0,0,0-.27-1.854l-1.692.072V0h2.2V-4.41a2.137,2.137,0,0,1,2.034-2.322,1.6,1.6,0,0,1,1.656,1.818V0h2.2V-5.22A3.077,3.077,0,0,0-76.284-8.6Zm11.556.108-1.962,5.31a5.919,5.919,0,0,0-.27,1.08h-.054a4.992,4.992,0,0,0-.27-1.08L-69.228-8.5H-71.6l3.33,8.5h2.43l3.312-8.5Zm6.624-2.736a1.4,1.4,0,0,0-1.44-1.386,1.388,1.388,0,0,0-1.44,1.386,1.377,1.377,0,0,0,1.44,1.386A1.388,1.388,0,0,0-58.1-11.232ZM-60.66,0h2.2V-8.568l-2.2.072Zm10.62-2.214a2.267,2.267,0,0,1-1.44.468c-1.008,0-1.458-.558-1.458-1.764V-6.8h3.078V-8.5h-3.078v-2.52l-2.142.09V-8.5h-1.368V-6.8h1.314v3.366c0,2.358,1.08,3.546,3.294,3.546a4.625,4.625,0,0,0,2.43-.594Zm6.534.612a2.383,2.383,0,0,1-2.556-2.124h5.9a3.808,3.808,0,0,0,.09-.882,3.717,3.717,0,0,0-3.906-4,4.119,4.119,0,0,0-4.3,4.374A4.165,4.165,0,0,0-43.74.108,4.429,4.429,0,0,0-40.14-1.4L-41.256-2.61A2.766,2.766,0,0,1-43.506-1.6Zm-.468-5.292a1.8,1.8,0,0,1,1.836,1.926h-3.924A2.089,2.089,0,0,1-43.974-6.894ZM-27.18-8.442l2.052-.5c-.234-1.152-1.134-3.06-4.32-3.06-2.484,0-4.14,1.494-4.14,3.474,0,4.14,6.282,2.79,6.282,5.418,0,.846-.738,1.368-2.106,1.368a5.163,5.163,0,0,1-3.366-1.368l-1.35,1.656A7.234,7.234,0,0,0-29.466.126c2.862,0,4.428-1.4,4.428-3.276,0-4.446-6.282-3.2-6.282-5.49,0-.9.738-1.458,1.926-1.458A2.031,2.031,0,0,1-27.18-8.442Zm10.134,6.228a2.267,2.267,0,0,1-1.44.468c-1.008,0-1.458-.558-1.458-1.764V-6.8h3.078V-8.5h-3.078v-2.52l-2.142.09V-8.5h-1.368V-6.8h1.314v3.366c0,2.358,1.08,3.546,3.294,3.546a4.625,4.625,0,0,0,2.43-.594ZM-9.054-8.5v4.41a2.122,2.122,0,0,1-1.89,2.322c-1.08,0-1.638-.72-1.638-1.818V-8.5h-2.2v5.22a3.073,3.073,0,0,0,3.2,3.384,2.778,2.778,0,0,0,2.7-1.764h.036A10.672,10.672,0,0,0-8.586.072L-6.858,0V-8.5Zm11.07-4.212v5.346A3.062,3.062,0,0,0-.63-8.6c-2.25,0-3.96,1.638-3.96,4.374C-4.59-1.692-3.06.108-.738.108A3.02,3.02,0,0,0,2.2-1.71H2.25A9.779,9.779,0,0,0,2.466.072L4.212,0V-12.708ZM-.18-1.728a2.219,2.219,0,0,1-2.2-2.5c0-1.548.846-2.538,2.124-2.538A2.228,2.228,0,0,1,2.016-4.5V-4A2.226,2.226,0,0,1-.18-1.728Zm11.5,2.97L15.066-8.5H12.852l-1.89,5.31a6.787,6.787,0,0,0-.288,1.08h-.036a4.992,4.992,0,0,0-.27-1.08L8.442-8.5H6.066L9.612.324,9.378.882a1.513,1.513,0,0,1-1.494,1.1,2.392,2.392,0,0,1-.99-.234l-.342,1.71a3.573,3.573,0,0,0,1.512.306A3.369,3.369,0,0,0,11.322,1.242ZM27.738-6.192v-.054a2.263,2.263,0,0,0,1.908-2.43c0-2.052-1.512-3.2-4.032-3.2H21.132V0H26.1c2.61,0,4.068-1.17,4.068-3.222A2.93,2.93,0,0,0,27.738-6.192Zm-.36-2.286c0,.936-.7,1.6-2.034,1.6H23.382v-3.24h1.8C26.676-10.116,27.378-9.54,27.378-8.478ZM25.722-1.764h-2.34V-5.292H25.56c1.332,0,2.322.594,2.322,1.818C27.882-2.3,26.982-1.764,25.722-1.764ZM38.142-8.5v4.41a2.122,2.122,0,0,1-1.89,2.322c-1.08,0-1.638-.72-1.638-1.818V-8.5h-2.2v5.22a3.073,3.073,0,0,0,3.2,3.384,2.778,2.778,0,0,0,2.7-1.764h.036A10.672,10.672,0,0,0,38.61.072L40.338,0V-8.5Zm11.07-4.212v5.346A3.062,3.062,0,0,0,46.566-8.6c-2.25,0-3.96,1.638-3.96,4.374,0,2.538,1.53,4.338,3.852,4.338A3.02,3.02,0,0,0,49.392-1.71h.054A9.78,9.78,0,0,0,49.662.072L51.408,0V-12.708Zm-2.2,10.98a2.219,2.219,0,0,1-2.2-2.5c0-1.548.846-2.538,2.124-2.538A2.228,2.228,0,0,1,49.212-4.5V-4A2.226,2.226,0,0,1,47.016-1.728Zm13.266-10.98v5.346A3.062,3.062,0,0,0,57.636-8.6c-2.25,0-3.96,1.638-3.96,4.374,0,2.538,1.53,4.338,3.852,4.338A3.02,3.02,0,0,0,60.462-1.71h.054A9.78,9.78,0,0,0,60.732.072L62.478,0V-12.708Zm-2.2,10.98a2.219,2.219,0,0,1-2.2-2.5c0-1.548.846-2.538,2.124-2.538A2.228,2.228,0,0,1,60.282-4.5V-4A2.226,2.226,0,0,1,58.086-1.728Zm9.666-9.5a1.4,1.4,0,0,0-1.44-1.386,1.388,1.388,0,0,0-1.44,1.386,1.377,1.377,0,0,0,1.44,1.386A1.388,1.388,0,0,0,67.752-11.232ZM65.2,0h2.2V-8.568L65.2-8.5ZM74.43-1.6a2.383,2.383,0,0,1-2.556-2.124h5.9a3.808,3.808,0,0,0,.09-.882,3.717,3.717,0,0,0-3.906-4,4.119,4.119,0,0,0-4.3,4.374A4.165,4.165,0,0,0,74.2.108,4.429,4.429,0,0,0,77.8-1.4L76.68-2.61A2.766,2.766,0,0,1,74.43-1.6Zm-.468-5.292A1.8,1.8,0,0,1,75.8-4.968H71.874A2.089,2.089,0,0,1,73.962-6.894ZM84.834-5.508l1.944-.126a2.151,2.151,0,0,0,.072-.576c0-1.386-1.4-2.394-3.438-2.394-2.142,0-3.546,1.044-3.546,2.628,0,3.114,4.9,2.2,4.9,3.672,0,.486-.486.81-1.476.81A4.782,4.782,0,0,1,80.568-2.52l-1.1,1.35A5.6,5.6,0,0,0,83.34.108c2.25,0,3.654-.972,3.654-2.5-.036-3.258-5.04-1.89-5.04-3.672,0-.576.486-.99,1.386-.99.936,0,1.53.468,1.53,1.206A1.656,1.656,0,0,1,84.834-5.508Z" transform="translate(666 507)"/><rect width="220" height="64" rx="4" transform="translate(1360 116)"/><rect width="220" height="64" rx="4" transform="translate(1360 204)" fill="#959595"/><rect width="220" height="64" rx="4" transform="translate(1360 380)" fill="#c9c9c9"/><path d="M-13.923-12.006c-3.222,0-5.526,2.376-5.526,6.066,0,3.78,2.358,6.066,5.832,6.066a5.456,5.456,0,0,0,4.536-2.3l-1.35-1.386a4,4,0,0,1-3.132,1.71c-1.854,0-3.582-1.17-3.582-4.086,0-2.574,1.44-4.086,3.258-4.086A2.529,2.529,0,0,1-11.3-7.38L-9.171-7.7A4.358,4.358,0,0,0-13.923-12.006ZM-2.1-8.6a2.788,2.788,0,0,0-2.646,1.53H-4.8v-5.634h-2.16V0h2.2V-4.41A2.127,2.127,0,0,1-2.727-6.732,1.59,1.59,0,0,1-1.071-4.914V0h2.2V-5.22A3.068,3.068,0,0,0-2.1-8.6ZM11.835-1.746a1.585,1.585,0,0,1-.306.036c-.36,0-.5-.144-.5-.576V-5.274c0-2.07-1.35-3.33-3.78-3.33-2.286,0-3.672,1.08-3.672,2.682a2.906,2.906,0,0,0,.108.792l1.944-.324A.879.879,0,0,1,5.553-5.8c0-.7.576-1.116,1.62-1.116a1.5,1.5,0,0,1,1.71,1.584v.414H8.739c-3.348.054-5.418.648-5.418,2.682,0,1.4,1.026,2.34,2.88,2.34A2.868,2.868,0,0,0,8.991-1.26c.144.918.756,1.35,1.854,1.35a4.8,4.8,0,0,0,1.08-.126Zm-5.058.18c-.846,0-1.314-.324-1.314-.9,0-.846.972-1.206,3.276-1.242h.144v.72C8.883-2.268,8.109-1.566,6.777-1.566Zm12.69-.648a2.267,2.267,0,0,1-1.44.468c-1.008,0-1.458-.558-1.458-1.764V-6.8h3.078V-8.5H16.569v-2.52l-2.142.09V-8.5H13.059V-6.8h1.314v3.366c0,2.358,1.08,3.546,3.294,3.546A4.625,4.625,0,0,0,20.1-.486Z" transform="translate(1470 155)" fill="#fff"/><path d="M-69.12-8.442l2.052-.5c-.234-1.152-1.134-3.06-4.32-3.06-2.484,0-4.14,1.494-4.14,3.474,0,4.14,6.282,2.79,6.282,5.418,0,.846-.738,1.368-2.106,1.368a5.163,5.163,0,0,1-3.366-1.368l-1.35,1.656A7.234,7.234,0,0,0-71.406.126c2.862,0,4.428-1.4,4.428-3.276,0-4.446-6.282-3.2-6.282-5.49,0-.9.738-1.458,1.926-1.458A2.031,2.031,0,0,1-69.12-8.442Zm10.134,6.228a2.267,2.267,0,0,1-1.44.468c-1.008,0-1.458-.558-1.458-1.764V-6.8h3.078V-8.5h-3.078v-2.52l-2.142.09V-8.5h-1.368V-6.8h1.314v3.366C-64.08-1.08-63,.108-60.786.108a4.625,4.625,0,0,0,2.43-.594ZM-50.994-8.5v4.41a2.122,2.122,0,0,1-1.89,2.322c-1.08,0-1.638-.72-1.638-1.818V-8.5h-2.2v5.22a3.073,3.073,0,0,0,3.2,3.384,2.778,2.778,0,0,0,2.7-1.764h.036A10.672,10.672,0,0,0-50.526.072L-48.8,0V-8.5Zm11.07-4.212v5.346A3.062,3.062,0,0,0-42.57-8.6c-2.25,0-3.96,1.638-3.96,4.374,0,2.538,1.53,4.338,3.852,4.338A3.02,3.02,0,0,0-39.744-1.71h.054A9.78,9.78,0,0,0-39.474.072L-37.728,0V-12.708Zm-2.2,10.98a2.219,2.219,0,0,1-2.2-2.5c0-1.548.846-2.538,2.124-2.538A2.228,2.228,0,0,1-39.924-4.5V-4A2.226,2.226,0,0,1-42.12-1.728Zm11.5,2.97L-26.874-8.5h-2.214l-1.89,5.31a6.787,6.787,0,0,0-.288,1.08H-31.3a4.992,4.992,0,0,0-.27-1.08L-33.5-8.5h-2.376l3.546,8.82-.234.558a1.513,1.513,0,0,1-1.494,1.1,2.392,2.392,0,0,1-.99-.234l-.342,1.71a3.573,3.573,0,0,0,1.512.306A3.369,3.369,0,0,0-30.618,1.242ZM-14.2-6.192v-.054a2.263,2.263,0,0,0,1.908-2.43c0-2.052-1.512-3.2-4.032-3.2h-4.482V0h4.968c2.61,0,4.068-1.17,4.068-3.222A2.93,2.93,0,0,0-14.2-6.192Zm-.36-2.286c0,.936-.7,1.6-2.034,1.6h-1.962v-3.24h1.8C-15.264-10.116-14.562-9.54-14.562-8.478Zm-1.656,6.714h-2.34V-5.292h2.178c1.332,0,2.322.594,2.322,1.818C-14.058-2.3-14.958-1.764-16.218-1.764ZM-3.8-8.5v4.41a2.122,2.122,0,0,1-1.89,2.322c-1.08,0-1.638-.72-1.638-1.818V-8.5h-2.2v5.22A3.073,3.073,0,0,0-6.318.108a2.778,2.778,0,0,0,2.7-1.764h.036A10.672,10.672,0,0,0-3.33.072L-1.6,0V-8.5Zm11.07-4.212v5.346A3.062,3.062,0,0,0,4.626-8.6C2.376-8.6.666-6.966.666-4.23.666-1.692,2.2.108,4.518.108A3.02,3.02,0,0,0,7.452-1.71h.054A9.779,9.779,0,0,0,7.722.072L9.468,0V-12.708Zm-2.2,10.98a2.219,2.219,0,0,1-2.2-2.5c0-1.548.846-2.538,2.124-2.538A2.228,2.228,0,0,1,7.272-4.5V-4A2.226,2.226,0,0,1,5.076-1.728Zm13.266-10.98v5.346A3.062,3.062,0,0,0,15.7-8.6c-2.25,0-3.96,1.638-3.96,4.374,0,2.538,1.53,4.338,3.852,4.338A3.02,3.02,0,0,0,18.522-1.71h.054A9.779,9.779,0,0,0,18.792.072L20.538,0V-12.708Zm-2.2,10.98a2.219,2.219,0,0,1-2.2-2.5c0-1.548.846-2.538,2.124-2.538A2.228,2.228,0,0,1,18.342-4.5V-4A2.226,2.226,0,0,1,16.146-1.728Zm11.5,2.97L31.392-8.5H29.178l-1.89,5.31A6.787,6.787,0,0,0,27-2.106h-.036a4.992,4.992,0,0,0-.27-1.08L24.768-8.5H22.392L25.938.324,25.7.882a1.513,1.513,0,0,1-1.494,1.1,2.392,2.392,0,0,1-.99-.234l-.342,1.71a3.573,3.573,0,0,0,1.512.306A3.369,3.369,0,0,0,27.648,1.242ZM42.39-12.006c-3.222,0-5.526,2.376-5.526,6.066,0,3.78,2.358,6.066,5.832,6.066a5.456,5.456,0,0,0,4.536-2.3l-1.35-1.386a4,4,0,0,1-3.132,1.71c-1.854,0-3.582-1.17-3.582-4.086,0-2.574,1.44-4.086,3.258-4.086A2.529,2.529,0,0,1,45.018-7.38L47.142-7.7A4.358,4.358,0,0,0,42.39-12.006ZM54.216-8.6a2.788,2.788,0,0,0-2.646,1.53h-.054v-5.634h-2.16V0h2.2V-4.41a2.127,2.127,0,0,1,2.034-2.322,1.59,1.59,0,0,1,1.656,1.818V0h2.2V-5.22A3.068,3.068,0,0,0,54.216-8.6ZM68.148-1.746a1.585,1.585,0,0,1-.306.036c-.36,0-.5-.144-.5-.576V-5.274c0-2.07-1.35-3.33-3.78-3.33-2.286,0-3.672,1.08-3.672,2.682a2.906,2.906,0,0,0,.108.792l1.944-.324a.879.879,0,0,1-.072-.342c0-.7.576-1.116,1.62-1.116A1.5,1.5,0,0,1,65.2-5.328v.414h-.144c-3.348.054-5.418.648-5.418,2.682,0,1.4,1.026,2.34,2.88,2.34A2.868,2.868,0,0,0,65.3-1.26c.144.918.756,1.35,1.854,1.35a4.8,4.8,0,0,0,1.08-.126Zm-5.058.18c-.846,0-1.314-.324-1.314-.9,0-.846.972-1.206,3.276-1.242H65.2v.72C65.2-2.268,64.422-1.566,63.09-1.566Zm12.69-.648a2.267,2.267,0,0,1-1.44.468c-1.008,0-1.458-.558-1.458-1.764V-6.8H75.96V-8.5H72.882v-2.52l-2.142.09V-8.5H69.372V-6.8h1.314v3.366c0,2.358,1.08,3.546,3.294,3.546a4.625,4.625,0,0,0,2.43-.594Z" transform="translate(1470 243)"/><path d="M-76.707-8.442l2.052-.5c-.234-1.152-1.134-3.06-4.32-3.06-2.484,0-4.14,1.494-4.14,3.474,0,4.14,6.282,2.79,6.282,5.418,0,.846-.738,1.368-2.106,1.368a5.163,5.163,0,0,1-3.366-1.368l-1.35,1.656A7.234,7.234,0,0,0-78.993.126c2.862,0,4.428-1.4,4.428-3.276,0-4.446-6.282-3.2-6.282-5.49,0-.9.738-1.458,1.926-1.458A2.031,2.031,0,0,1-76.707-8.442Zm10.134,6.228a2.267,2.267,0,0,1-1.44.468c-1.008,0-1.458-.558-1.458-1.764V-6.8h3.078V-8.5h-3.078v-2.52l-2.142.09V-8.5h-1.368V-6.8h1.314v3.366c0,2.358,1.08,3.546,3.294,3.546a4.625,4.625,0,0,0,2.43-.594ZM-58.581-8.5v4.41a2.122,2.122,0,0,1-1.89,2.322c-1.08,0-1.638-.72-1.638-1.818V-8.5h-2.2v5.22A3.073,3.073,0,0,0-61.1.108a2.778,2.778,0,0,0,2.7-1.764h.036A10.672,10.672,0,0,0-58.113.072L-56.385,0V-8.5Zm11.07-4.212v5.346A3.062,3.062,0,0,0-50.157-8.6c-2.25,0-3.96,1.638-3.96,4.374,0,2.538,1.53,4.338,3.852,4.338A3.02,3.02,0,0,0-47.331-1.71h.054A9.78,9.78,0,0,0-47.061.072L-45.315,0V-12.708Zm-2.2,10.98a2.219,2.219,0,0,1-2.2-2.5c0-1.548.846-2.538,2.124-2.538A2.228,2.228,0,0,1-47.511-4.5V-4A2.226,2.226,0,0,1-49.707-1.728Zm11.5,2.97L-34.461-8.5h-2.214l-1.89,5.31a6.787,6.787,0,0,0-.288,1.08h-.036a4.992,4.992,0,0,0-.27-1.08L-41.085-8.5h-2.376l3.546,8.82-.234.558a1.513,1.513,0,0,1-1.494,1.1,2.392,2.392,0,0,1-.99-.234l-.342,1.71a3.573,3.573,0,0,0,1.512.306A3.369,3.369,0,0,0-38.2,1.242Zm16.416-7.434v-.054a2.263,2.263,0,0,0,1.908-2.43c0-2.052-1.512-3.2-4.032-3.2h-4.482V0h4.968c2.61,0,4.068-1.17,4.068-3.222A2.93,2.93,0,0,0-21.789-6.192Zm-.36-2.286c0,.936-.7,1.6-2.034,1.6h-1.962v-3.24h1.8C-22.851-10.116-22.149-9.54-22.149-8.478ZM-23.8-1.764h-2.34V-5.292h2.178c1.332,0,2.322.594,2.322,1.818C-21.645-2.3-22.545-1.764-23.8-1.764ZM-11.385-8.5v4.41a2.122,2.122,0,0,1-1.89,2.322c-1.08,0-1.638-.72-1.638-1.818V-8.5h-2.2v5.22A3.073,3.073,0,0,0-13.9.108a2.778,2.778,0,0,0,2.7-1.764h.036A10.672,10.672,0,0,0-10.917.072L-9.189,0V-8.5Zm11.07-4.212v5.346A3.062,3.062,0,0,0-2.961-8.6c-2.25,0-3.96,1.638-3.96,4.374,0,2.538,1.53,4.338,3.852,4.338A3.02,3.02,0,0,0-.135-1.71h.054A9.779,9.779,0,0,0,.135.072L1.881,0V-12.708Zm-2.2,10.98a2.219,2.219,0,0,1-2.2-2.5c0-1.548.846-2.538,2.124-2.538A2.228,2.228,0,0,1-.315-4.5V-4A2.226,2.226,0,0,1-2.511-1.728Zm13.266-10.98v5.346A3.062,3.062,0,0,0,8.109-8.6c-2.25,0-3.96,1.638-3.96,4.374C4.149-1.692,5.679.108,8,.108A3.02,3.02,0,0,0,10.935-1.71h.054A9.779,9.779,0,0,0,11.2.072L12.951,0V-12.708Zm-2.2,10.98a2.219,2.219,0,0,1-2.2-2.5c0-1.548.846-2.538,2.124-2.538A2.228,2.228,0,0,1,10.755-4.5V-4A2.226,2.226,0,0,1,8.559-1.728Zm11.5,2.97L23.805-8.5H21.591L19.7-3.186a6.787,6.787,0,0,0-.288,1.08h-.036a4.992,4.992,0,0,0-.27-1.08L17.181-8.5H14.8L18.351.324l-.234.558a1.513,1.513,0,0,1-1.494,1.1,2.392,2.392,0,0,1-.99-.234l-.342,1.71a3.573,3.573,0,0,0,1.512.306A3.369,3.369,0,0,0,20.061,1.242ZM33.993-11.88H29.871V0h2.268V-3.582h2.142c2.736,0,4.59-1.422,4.59-4.158C38.871-10.458,37.053-11.88,33.993-11.88ZM33.867-5.4H32.139v-4.662h1.638c1.836,0,2.808.882,2.808,2.322C36.585-6.228,35.6-5.4,33.867-5.4ZM45.261-8.6A2.368,2.368,0,0,0,42.975-6.66h-.054a9.629,9.629,0,0,0-.27-1.908L40.959-8.5V0h2.2V-4.212c0-1.53.882-2.3,1.836-2.3a1.5,1.5,0,0,1,.918.27l.558-2.142A3.2,3.2,0,0,0,45.261-8.6Zm6.606,0A4.205,4.205,0,0,0,47.421-4.23,4.177,4.177,0,0,0,51.867.108,4.167,4.167,0,0,0,56.313-4.23,4.2,4.2,0,0,0,51.867-8.6Zm0,6.912A2.262,2.262,0,0,1,49.653-4.23,2.285,2.285,0,0,1,51.867-6.8,2.285,2.285,0,0,1,54.081-4.23,2.262,2.262,0,0,1,51.867-1.692Zm9.378-7.6a1.5,1.5,0,0,1,1.548-1.692,1.935,1.935,0,0,1,1.062.36l.666-1.746a4.231,4.231,0,0,0-1.98-.45,3.326,3.326,0,0,0-3.492,3.564V-8.5h-1.26V-6.8h1.26V0h2.2V-6.8h2.736V-8.5H61.245Zm7.182-1.944a1.4,1.4,0,0,0-1.44-1.386,1.388,1.388,0,0,0-1.44,1.386,1.377,1.377,0,0,0,1.44,1.386A1.388,1.388,0,0,0,68.427-11.232ZM65.871,0h2.2V-8.568l-2.2.072ZM70.8,0h2.178V-12.708H70.8Zm9.216-1.6a2.383,2.383,0,0,1-2.556-2.124h5.9a3.808,3.808,0,0,0,.09-.882,3.717,3.717,0,0,0-3.906-4,4.119,4.119,0,0,0-4.3,4.374A4.165,4.165,0,0,0,79.785.108a4.429,4.429,0,0,0,3.6-1.512L82.269-2.61A2.766,2.766,0,0,1,80.019-1.6Zm-.468-5.292a1.8,1.8,0,0,1,1.836,1.926H77.463A2.089,2.089,0,0,1,79.551-6.894Z" transform="translate(1470 419)"/></g></svg>