<svg xmlns="http://www.w3.org/2000/svg" xmlns:xlink="http://www.w3.org/1999/xlink" width="1600" height="552" viewBox="0 0 1600 552"><defs><clipPath id="b"><rect width="1600" height="552"/></clipPath></defs><g id="a" clip-path="url(#b)"><rect width="220" height="64" rx="4" transform="translate(688 28)" fill="#fff"/><path d="M4,1A3,3,0,0,0,1,4V60a3,3,0,0,0,3,3H216a3,3,0,0,0,3-3V4a3,3,0,0,0-3-3H4M4,0H216a4,4,0,0,1,4,4V60a4,4,0,0,1-4,4H4a4,4,0,0,1-4-4V4A4,4,0,0,1,4,0Z" transform="translate(688 28)" fill="#1c1c1c"/><rect width="220" height="64" rx="4" transform="translate(556 116)"/><rect width="220" height="64" rx="4" transform="translate(288 204)" fill="#959595"/><rect width="220" height="64" rx="4" transform="translate(556 204)" fill="#959595"/><rect width="220" height="64" rx="4" transform="translate(556 292)" fill="#959595"/><rect width="220" height="64" rx="4" transform="translate(288 116)"/><rect width="220" height="64" rx="4" transform="translate(20 116)"/><rect width="220" height="64" rx="4" transform="translate(20 204)" fill="#959595"/><rect width="220" height="64" rx="4" transform="translate(20 292)" fill="#959595"/><rect width="220" height="64" rx="4" transform="translate(824 116)"/><rect width="220" height="64" rx="4" transform="translate(824 204)" fill="#959595"/><rect width="220" height="64" rx="4" transform="translate(824 292)" fill="#959595"/><rect width="220" height="64" rx="4" transform="translate(1092 116)"/><rect width="220" height="64" rx="4" transform="translate(1092 204)" fill="#959595"/><rect width="220" height="64" rx="4" transform="translate(1092 292)" fill="#959595"/><rect width="220" height="64" rx="4" transform="translate(556 380)" fill="#d3d3d3"/><rect width="220" height="64" rx="4" transform="translate(556 468)" fill="#efefef"/><text transform="translate(798 68)" fill="#1c1c1c" font-size="18" font-family="BasicSans-SemiBold, Basic Sans" font-weight="600" letter-spacing="0.03em"><tspan x="-24.84" y="0">Home</tspan></text><text transform="translate(666 155)" fill="#fff" font-size="18" font-family="BasicSans-SemiBold, Basic Sans" font-weight="600" letter-spacing="0.03em"><tspan x="-20.259" y="0">Lists</tspan></text><text transform="translate(398 243)" font-size="18" font-family="BasicSans-SemiBold, Basic Sans" font-weight="600" letter-spacing="0.03em"><tspan x="-20.259" y="0">Lists</tspan></text><text transform="translate(666 243)" font-size="18" font-family="BasicSans-SemiBold, Basic Sans" font-weight="600" letter-spacing="0.03em"><tspan x="-34.992" y="0">Edit List</tspan></text><text transform="translate(666 331)" font-size="18" font-family="BasicSans-SemiBold, Basic Sans" font-weight="600" letter-spacing="0.03em"><tspan x="-59.391" y="0">Focus Session</tspan></text><text transform="translate(398 155)" fill="#fff" font-size="18" font-family="BasicSans-SemiBold, Basic Sans" font-weight="600" letter-spacing="0.03em"><tspan x="-67.167" y="0">Create New List</tspan></text><text transform="translate(130 155)" fill="#fff" font-size="18" font-family="BasicSans-SemiBold, Basic Sans" font-weight="600" letter-spacing="0.03em"><tspan x="-55.827" y="0">Notifications</tspan></text><text transform="translate(130 243)" font-size="18" font-family="BasicSans-SemiBold, Basic Sans" font-weight="600" letter-spacing="0.03em"><tspan x="-85.932" y="0">Focus Session Invite</tspan></text><text transform="translate(130 331)" font-size="18" font-family="BasicSans-SemiBold, Basic Sans" font-weight="600" letter-spacing="0.03em"><tspan x="-87.786" y="0">Profile (View Cheers)</tspan></text><text transform="translate(934 155)" fill="#fff" font-size="18" font-family="BasicSans-SemiBold, Basic Sans" font-weight="600" letter-spacing="0.03em"><tspan x="-27.774" y="0">Profile</tspan></text><text transform="translate(934 243)" font-size="18" font-family="BasicSans-SemiBold, Basic Sans" font-weight="600" letter-spacing="0.03em"><tspan x="-35.505" y="0">Settings</tspan></text><text transform="translate(934 331)" font-size="18" font-family="BasicSans-SemiBold, Basic Sans" font-weight="600" letter-spacing="0.03em"><tspan x="-70.686" y="0">Schedule Details</tspan></text><text transform="translate(1202 155)" fill="#fff" font-size="18" font-family="BasicSans-SemiBold, Basic Sans" font-weight="600" letter-spacing="0.03em"><tspan x="-61.101" y="0">Study Buddies</tspan></text><text transform="translate(1202 243)" font-size="18" font-family="BasicSans-SemiBold, Basic Sans" font-weight="600" letter-spacing="0.03em"><tspan x="-84.087" y="0">Study Buddy Profile</tspan></text><text transform="translate(1202 331)" font-size="18" font-family="BasicSans-SemiBold, Basic Sans" font-weight="600" letter-spacing="0.03em"><tspan x="-93.879" y="0">Add New Study Buddy</tspan></text><text transform="translate(666 419)" font-size="18" font-family="BasicSans-SemiBold, Basic Sans" font-weight="600" letter-spacing="0.03em"><tspan x="-73.458" y="0">Schedule Session</tspan></text><text transform="translate(666 507)" font-size="18" font-family="BasicSans-SemiBold, Basic Sans" font-weight="600" letter-spacing="0.03em"><tspan x="-87.642" y="0">Invite Study Buddies</tspan></text><rect width="220" height="64" rx="4" transform="translate(1360 116)"/><rect width="220" height="64" rx="4" transform="translate(1360 204)" fill="#959595"/><rect width="220" height="64" rx="4" transform="translate(1360 380)" fill="#d3d3d3"/><text transform="translate(1470 155)" fill="#fff" font-size="18" font-family="BasicSans-SemiBold, Basic Sans" font-weight="600" letter-spacing="0.03em"><tspan x="-20.187" y="0">Chat</tspan></text><text transform="translate(1470 243)" font-size="18" font-family="BasicSans-SemiBold, Basic Sans" font-weight="600" letter-spacing="0.03em"><tspan x="-76.5" y="0">Study Buddy Chat</tspan></text><text transform="translate(1470 419)" font-size="18" font-family="BasicSans-SemiBold, Basic Sans" font-weight="600" letter-spacing="0.03em"><tspan x="-84.087" y="0">Study Buddy Profile</tspan></text></g></svg>